<svg width="950" height="250" viewBox="0 0 950 250" fill="none" xmlns="http://www.w3.org/2000/svg">
<rect width="950" height="250" rx="8" fill="#F4F6FF"/>
<path d="M445.347 125.577C443.523 123.147 439.984 122.589 437.441 124.332L413.268 140.896C410.725 142.638 410.141 146.021 411.965 148.451L413.117 149.987C414.94 152.417 418.48 152.975 421.023 151.232L445.196 134.668C447.739 132.926 448.322 129.543 446.499 127.113L445.347 125.577Z" fill="url(#paint0_linear_5840_30366)"/>
<path d="M399.757 114.17C396.216 114.846 396.955 118.515 398.29 121.219L410.983 146.928C412.318 149.632 415.694 150.79 418.524 149.514L420.313 148.707C423.143 147.431 424.354 144.204 423.019 141.5L410.734 113.156C405.068 107.742 407.968 116.825 405.138 118.101L399.757 114.17Z" fill="url(#paint1_linear_5840_30366)"/>
<path d="M390.233 86.6907L385.289 89.3355L416.076 141.898C416.84 143.203 418.566 143.669 419.932 142.938C421.297 142.208 421.784 140.558 421.02 139.254L390.233 86.6907Z" fill="#FFC700"/>
<path d="M387.556 85.5784C386.749 85.304 385.874 85.7723 385.696 86.5736L385.119 89.1805C384.867 90.3183 386.135 91.21 387.196 90.6419L390.401 88.9278C391.462 88.3597 391.33 86.8609 390.183 86.4712L387.556 85.5784Z" fill="#FFF7DC"/>
<path d="M385.339 83.879L385.619 85.2806L386.105 86.5719L387.341 85.9108L386.443 84.8398L385.339 83.879Z" fill="#152E40"/>
<path d="M420.328 138.072L415.384 140.717L416.076 141.898C416.84 143.203 418.566 143.669 419.932 142.938C421.297 142.208 421.784 140.558 421.02 139.254L420.328 138.072Z" fill="#CA81A0"/>
<path d="M455.055 105.001C455.055 85.3944 474.329 69.5 498.105 69.5C521.881 69.5 541.155 85.3944 541.155 105.001C541.155 124.608 521.881 140.502 498.105 140.502C474.329 140.502 455.055 124.608 455.055 105.001Z" fill="url(#paint2_angular_5840_30366)"/>
<path d="M445.374 98.1358C443.176 93.0116 446.816 87.2505 452.251 87.2505H544.021C546.362 87.2505 549.169 89.6147 550.412 92.2648C552.2 96.0783 548.872 100.436 548.088 104.547C547.691 104.767 547.239 104.884 546.78 104.884L449.977 105.001H448.058C447.854 105.001 447.782 104.723 447.959 104.619C448.047 104.566 448.083 104.454 448.042 104.358L445.374 98.1358Z" fill="url(#paint3_linear_5840_30366)"/>
<path d="M442.156 111.855C441.289 108.118 444.037 104.528 447.765 104.528H551.19C554.918 104.528 557.667 108.118 556.8 111.855L556.565 112.866C556.088 114.921 557.027 117.047 558.844 118.025C560.32 118.821 561.245 120.395 561.245 122.112V124.823C561.245 126.457 559.96 127.781 558.375 127.781L441.92 128.172C438.484 128.183 436.034 124.74 437.078 121.365C437.483 120.054 438.391 118.952 439.574 118.315C441.687 117.177 442.812 114.686 442.258 112.296L442.156 111.855Z" fill="url(#paint4_linear_5840_30366)"/>
<path d="M430.409 139.037C429.11 133.27 433.359 127.758 439.102 127.758H555.638C560.854 127.758 564.742 132.715 563.65 137.972L563.49 138.739C562.998 141.109 563.725 143.573 565.413 145.26C569.814 149.657 566.794 157.341 560.666 157.341L433.532 157.342C427.345 157.342 424.242 149.635 428.611 145.119L429.053 144.662C430.07 143.612 430.64 142.189 430.64 140.705C430.64 140.279 430.593 139.854 430.5 139.438L430.409 139.037Z" fill="url(#paint5_linear_5840_30366)"/>
<path d="M432.095 156.832C432.095 156.907 432.155 156.968 432.228 156.968H563.983C564.056 156.968 564.115 156.908 564.115 156.833C564.115 169.904 553.835 180.5 541.155 180.5H455.056C442.375 180.5 432.095 169.903 432.095 156.832Z" fill="url(#paint6_linear_5840_30366)"/>
<path d="M487.898 106.726C488.194 106.726 488.437 106.495 488.404 106.214C488.341 105.678 488.179 105.152 487.922 104.654C487.584 103.997 487.088 103.4 486.463 102.897C485.839 102.394 485.097 101.995 484.281 101.723C483.464 101.451 482.59 101.311 481.706 101.311C480.823 101.311 479.948 101.451 479.131 101.723C478.315 101.995 477.573 102.394 476.949 102.897C476.324 103.4 475.828 103.997 475.49 104.654C475.234 105.152 475.071 105.678 475.008 106.214C474.975 106.495 475.218 106.726 475.515 106.726C475.811 106.726 476.047 106.495 476.087 106.214C476.146 105.792 476.279 105.378 476.481 104.984C476.766 104.432 477.182 103.93 477.707 103.507C478.232 103.085 478.856 102.75 479.542 102.521C480.228 102.292 480.963 102.174 481.706 102.174C482.449 102.174 483.184 102.292 483.87 102.521C484.556 102.75 485.18 103.085 485.705 103.507C486.23 103.93 486.646 104.432 486.931 104.984C487.133 105.378 487.266 105.792 487.325 106.214C487.365 106.495 487.601 106.726 487.898 106.726Z" fill="#152E40"/>
<path d="M488.435 113.814C488.435 117.728 485.423 120.901 481.707 120.901C477.991 120.901 474.978 117.728 474.978 113.814C474.978 109.899 477.991 106.726 481.707 106.726C485.423 106.726 488.435 109.899 488.435 113.814Z" fill="white"/>
<path d="M485.759 114.471C485.759 116.714 483.856 118.532 481.51 118.532C479.163 118.532 477.26 116.714 477.26 114.471C477.26 112.229 479.163 110.41 481.51 110.41C483.856 110.41 485.759 112.229 485.759 114.471Z" fill="#152E40"/>
<path d="M518.352 106.726C518.648 106.726 518.891 106.495 518.858 106.214C518.795 105.678 518.633 105.152 518.376 104.654C518.038 103.997 517.542 103.4 516.917 102.897C516.293 102.394 515.551 101.995 514.735 101.723C513.919 101.451 513.044 101.311 512.16 101.311C511.277 101.311 510.402 101.451 509.585 101.723C508.769 101.995 508.028 102.394 507.403 102.897C506.778 103.4 506.282 103.997 505.944 104.654C505.688 105.152 505.525 105.678 505.462 106.214C505.429 106.495 505.672 106.726 505.969 106.726C506.265 106.726 506.501 106.495 506.541 106.214C506.6 105.792 506.733 105.378 506.936 104.984C507.22 104.432 507.636 103.93 508.161 103.507C508.687 103.085 509.31 102.75 509.996 102.521C510.682 102.292 511.417 102.174 512.16 102.174C512.903 102.174 513.638 102.292 514.324 102.521C515.01 102.75 515.634 103.085 516.159 103.507C516.684 103.93 517.1 104.432 517.385 104.984C517.587 105.378 517.72 105.792 517.779 106.214C517.819 106.495 518.055 106.726 518.352 106.726Z" fill="#152E40"/>
<path d="M518.889 113.814C518.889 117.728 515.877 120.901 512.161 120.901C508.445 120.901 505.432 117.728 505.432 113.814C505.432 109.899 508.445 106.726 512.161 106.726C515.877 106.726 518.889 109.899 518.889 113.814Z" fill="white"/>
<path d="M516.213 114.471C516.213 116.714 514.31 118.532 511.964 118.532C509.617 118.532 507.714 116.714 507.714 114.471C507.714 112.229 509.617 110.41 511.964 110.41C514.31 110.41 516.213 112.229 516.213 114.471Z" fill="#152E40"/>
<path d="M527.385 112.14C527.385 120.738 520.092 127.707 511.096 127.707C502.1 127.707 494.808 120.738 494.808 112.14C494.808 103.543 502.1 96.5732 511.096 96.5732C520.092 96.5732 527.385 103.543 527.385 112.14Z" fill="white" fill-opacity="0.45"/>
<path d="M512.585 152.738C514.807 152.508 516.788 151.238 517.927 149.317C520.715 144.612 517.323 138.659 511.854 138.659L511.182 138.659L503.635 139.624C499.519 140.151 495.352 140.146 491.236 139.61L488.172 139.21C487.767 139.157 487.36 139.136 486.952 139.145L485.5 139.179C481.135 139.279 477.98 143.388 479.011 147.631C479.699 150.468 482.112 152.555 485.018 152.829L496.723 153.931C498.252 154.075 499.793 154.068 501.321 153.909L512.585 152.738Z" fill="#152E40"/>
<path d="M512.283 137.616C516.247 137.48 519.433 142.479 515.847 144.171C515.571 144.301 515.08 144.475 514.781 144.536C514.336 144.626 513.842 144.725 513.293 144.831C509.97 145.47 506.483 145.221 503.1 145.313C500.963 145.371 498.586 145.55 496.507 145.634C491.806 145.606 483.632 145.079 480.686 143.886C479.981 143.601 479.782 142.827 479.928 142.081C480.029 141.56 480.277 141.08 480.644 140.698L481.056 140.266C481.439 139.867 481.887 139.536 482.382 139.29L483.579 138.693L483.573 138.696C484.087 138.483 484.638 138.375 485.194 138.379L487.474 138.392L489.426 138.404L512.283 137.616Z" fill="white"/>
<defs>
<linearGradient id="paint0_linear_5840_30366" x1="432.448" y1="102.611" x2="398.535" y2="103.818" gradientUnits="userSpaceOnUse">
<stop stop-color="#FCE285"/>
<stop offset="0.22" stop-color="#FFDA57"/>
</linearGradient>
<linearGradient id="paint1_linear_5840_30366" x1="432.448" y1="102.611" x2="398.535" y2="103.818" gradientUnits="userSpaceOnUse">
<stop stop-color="#FCE285"/>
<stop offset="0.22" stop-color="#FFDA57"/>
</linearGradient>
<radialGradient id="paint2_angular_5840_30366" cx="0" cy="0" r="1" gradientUnits="userSpaceOnUse" gradientTransform="translate(497.034 125) rotate(-142.434) scale(7.40825 7.16222)">
<stop offset="0.4" stop-color="#FFF7DC"/>
<stop offset="0.552166" stop-color="#FFC700"/>
</radialGradient>
<linearGradient id="paint3_linear_5840_30366" x1="468.848" y1="45.4524" x2="563.715" y2="48.9269" gradientUnits="userSpaceOnUse">
<stop stop-color="#FFDA57"/>
<stop offset="0.615" stop-color="#FEE27C"/>
</linearGradient>
<linearGradient id="paint4_linear_5840_30366" x1="426.568" y1="80.1841" x2="577.424" y2="87.9229" gradientUnits="userSpaceOnUse">
<stop stop-color="#FFE793"/>
<stop offset="1" stop-color="#FFC700"/>
</linearGradient>
<linearGradient id="paint5_linear_5840_30366" x1="468.848" y1="45.4524" x2="563.715" y2="48.9269" gradientUnits="userSpaceOnUse">
<stop stop-color="#FFD028"/>
<stop offset="0.755" stop-color="#FCE285"/>
</linearGradient>
<linearGradient id="paint6_linear_5840_30366" x1="475.588" y1="98.4992" x2="584.868" y2="101.281" gradientUnits="userSpaceOnUse">
<stop stop-color="#FDE89D"/>
<stop offset="1" stop-color="#FFC700"/>
</linearGradient>
</defs>
</svg>
