<svg width="786" height="180" viewBox="0 0 786 180" fill="none" xmlns="http://www.w3.org/2000/svg">
<path d="M363.347 90.5769C361.523 88.1466 357.984 87.5891 355.441 89.3315L331.268 105.896C328.725 107.638 328.141 111.021 329.965 113.451L331.117 114.987C332.94 117.417 336.48 117.975 339.023 116.232L363.196 99.6685C365.739 97.926 366.322 94.5433 364.499 92.113L363.347 90.5769Z" fill="url(#paint0_linear_5245_24472)"/>
<path d="M317.757 79.1696C314.216 79.8465 314.955 83.5146 316.29 86.2191L328.983 111.928C330.318 114.632 333.694 115.79 336.524 114.514L338.313 113.707C341.143 112.431 342.354 109.204 341.019 106.5L328.734 78.1563C323.068 72.7417 325.968 81.8249 323.138 83.101L317.757 79.1696Z" fill="url(#paint1_linear_5245_24472)"/>
<path d="M308.233 51.6907L303.289 54.3355L334.076 106.898C334.84 108.203 336.566 108.669 337.932 107.938C339.297 107.208 339.784 105.558 339.02 104.254L308.233 51.6907Z" fill="#FFC700"/>
<path d="M305.556 50.5784C304.749 50.304 303.874 50.7723 303.696 51.5736L303.119 54.1805C302.867 55.3183 304.135 56.21 305.196 55.6419L308.401 53.9278C309.462 53.3597 309.33 51.8609 308.183 51.4712L305.556 50.5784Z" fill="#FFF7DC"/>
<path d="M303.339 48.879L303.619 50.2806L304.105 51.5719L305.341 50.9108L304.443 49.8398L303.339 48.879Z" fill="#152E40"/>
<path d="M338.328 103.072L333.384 105.717L334.076 106.898C334.84 108.203 336.566 108.669 337.932 107.938C339.297 107.208 339.784 105.558 339.02 104.254L338.328 103.072Z" fill="#DFACAC"/>
<path d="M373.055 70.0011C373.055 50.3944 392.329 34.5 416.105 34.5C439.881 34.5 459.155 50.3944 459.155 70.0011C459.155 89.6078 439.881 105.502 416.105 105.502C392.329 105.502 373.055 89.6078 373.055 70.0011Z" fill="url(#paint2_angular_5245_24472)"/>
<path d="M363.374 63.1358C361.176 58.0116 364.816 52.2505 370.251 52.2505H462.021C464.362 52.2505 467.169 54.6147 468.412 57.2648C470.2 61.0783 466.872 65.4361 466.088 69.5471C465.691 69.7675 465.239 69.8838 464.78 69.8844L367.977 70.0011H366.058C365.854 70.0011 365.782 69.7228 365.959 69.6186C366.047 69.5665 366.083 69.454 366.042 69.3581L363.374 63.1358Z" fill="url(#paint3_linear_5245_24472)"/>
<path d="M360.156 76.8554C359.289 73.1182 362.037 69.5277 365.765 69.5277H469.19C472.918 69.5277 475.667 73.1182 474.8 76.8554L474.565 77.866C474.088 79.9207 475.027 82.0466 476.844 83.0253C478.32 83.8206 479.245 85.3953 479.245 87.1121V89.8228C479.245 91.4566 477.96 92.7811 476.375 92.7809L359.92 93.1718C356.484 93.1833 354.034 89.7397 355.078 86.3652C355.483 85.0545 356.391 83.9524 357.574 83.315C359.687 82.1766 360.812 79.6857 360.258 77.2956L360.156 76.8554Z" fill="url(#paint4_linear_5245_24472)"/>
<path d="M348.409 104.037C347.11 98.2695 351.359 92.7576 357.102 92.7576H473.638C478.854 92.7576 482.742 97.7148 481.65 102.972L481.49 103.739C480.998 106.109 481.725 108.573 483.413 110.26C487.814 114.657 484.794 122.341 478.666 122.341L351.532 122.342C345.345 122.342 342.242 114.635 346.611 110.119L347.053 109.662C348.07 108.612 348.64 107.189 348.64 105.705C348.64 105.279 348.593 104.854 348.5 104.438L348.409 104.037Z" fill="url(#paint5_linear_5245_24472)"/>
<path d="M350.095 121.832C350.095 121.907 350.155 121.968 350.228 121.968H481.983C482.056 121.968 482.115 121.908 482.115 121.833C482.115 134.904 471.835 145.5 459.155 145.5H373.056C360.375 145.5 350.095 134.903 350.095 121.832Z" fill="url(#paint6_linear_5245_24472)"/>
<path d="M405.898 71.7256C406.194 71.7256 406.437 71.4954 406.404 71.214C406.341 70.6784 406.179 70.1524 405.922 69.6535C405.584 68.9966 405.088 68.3997 404.463 67.8969C403.839 67.3941 403.097 66.9953 402.281 66.7231C401.464 66.451 400.59 66.311 399.706 66.311C398.823 66.311 397.948 66.451 397.131 66.7231C396.315 66.9953 395.573 67.3941 394.949 67.8969C394.324 68.3997 393.828 68.9966 393.49 69.6535C393.234 70.1524 393.071 70.6784 393.008 71.214C392.975 71.4954 393.218 71.7256 393.515 71.7256C393.811 71.7256 394.047 71.4951 394.087 71.2144C394.146 70.7923 394.279 70.378 394.481 69.984C394.766 69.4318 395.182 68.9301 395.707 68.5075C396.232 68.0848 396.856 67.7496 397.542 67.5209C398.228 67.2922 398.963 67.1745 399.706 67.1745C400.449 67.1745 401.184 67.2922 401.87 67.5209C402.556 67.7496 403.18 68.0848 403.705 68.5075C404.23 68.9301 404.646 69.4318 404.931 69.984C405.133 70.378 405.266 70.7923 405.325 71.2144C405.365 71.4951 405.601 71.7256 405.898 71.7256Z" fill="#152E40"/>
<path d="M406.435 78.8135C406.435 82.7281 403.423 85.9014 399.707 85.9014C395.991 85.9014 392.978 82.7281 392.978 78.8135C392.978 74.899 395.991 71.7256 399.707 71.7256C403.423 71.7256 406.435 74.899 406.435 78.8135Z" fill="white"/>
<path d="M403.759 79.4715C403.759 81.7143 401.856 83.5324 399.51 83.5324C397.163 83.5324 395.26 81.7143 395.26 79.4715C395.26 77.2287 397.163 75.4105 399.51 75.4105C401.856 75.4105 403.759 77.2287 403.759 79.4715Z" fill="#152E40"/>
<path d="M436.352 71.7256C436.648 71.7256 436.891 71.4954 436.858 71.214C436.795 70.6784 436.633 70.1524 436.376 69.6535C436.038 68.9966 435.542 68.3997 434.917 67.8969C434.293 67.3941 433.551 66.9953 432.735 66.7231C431.919 66.451 431.044 66.311 430.16 66.311C429.277 66.311 428.402 66.451 427.585 66.7231C426.769 66.9953 426.028 67.3941 425.403 67.8969C424.778 68.3997 424.282 68.9966 423.944 69.6535C423.688 70.1524 423.525 70.6784 423.462 71.214C423.429 71.4954 423.672 71.7256 423.969 71.7256C424.265 71.7256 424.501 71.4951 424.541 71.2144C424.6 70.7923 424.733 70.378 424.936 69.984C425.22 69.4318 425.636 68.9301 426.161 68.5075C426.687 68.0848 427.31 67.7496 427.996 67.5209C428.682 67.2922 429.417 67.1745 430.16 67.1745C430.903 67.1745 431.638 67.2922 432.324 67.5209C433.01 67.7496 433.634 68.0848 434.159 68.5075C434.684 68.9301 435.1 69.4318 435.385 69.984C435.587 70.378 435.72 70.7923 435.779 71.2144C435.819 71.4951 436.055 71.7256 436.352 71.7256Z" fill="#152E40"/>
<path d="M436.889 78.8135C436.889 82.7281 433.877 85.9014 430.161 85.9014C426.445 85.9014 423.432 82.7281 423.432 78.8135C423.432 74.899 426.445 71.7256 430.161 71.7256C433.877 71.7256 436.889 74.899 436.889 78.8135Z" fill="white"/>
<path d="M434.213 79.4715C434.213 81.7143 432.31 83.5324 429.964 83.5324C427.617 83.5324 425.714 81.7143 425.714 79.4715C425.714 77.2287 427.617 75.4105 429.964 75.4105C432.31 75.4105 434.213 77.2287 434.213 79.4715Z" fill="#152E40"/>
<path d="M445.385 77.1402C445.385 85.7377 438.092 92.7073 429.096 92.7073C420.1 92.7073 412.808 85.7377 412.808 77.1402C412.808 68.5428 420.1 61.5732 429.096 61.5732C438.092 61.5732 445.385 68.5428 445.385 77.1402Z" fill="white" fill-opacity="0.45"/>
<path d="M430.585 117.738C432.807 117.508 434.788 116.238 435.927 114.317C438.715 109.612 435.323 103.659 429.854 103.659L429.182 103.659L421.635 104.624C417.519 105.151 413.352 105.146 409.236 104.61L406.172 104.21C405.767 104.157 405.36 104.136 404.952 104.145L403.5 104.179C399.135 104.279 395.98 108.388 397.011 112.631C397.699 115.468 400.112 117.555 403.018 117.829L414.723 118.931C416.252 119.075 417.793 119.068 419.321 118.909L430.585 117.738Z" fill="#152E40"/>
<path d="M430.283 102.616C434.247 102.48 437.433 107.479 433.847 109.171C433.571 109.301 433.08 109.475 432.781 109.536C432.336 109.626 431.842 109.725 431.293 109.831C427.97 110.47 424.483 110.221 421.1 110.313C418.963 110.371 416.586 110.55 414.507 110.634C409.806 110.606 401.632 110.079 398.686 108.886C397.981 108.601 397.782 107.827 397.928 107.081C398.029 106.56 398.277 106.08 398.644 105.698L399.056 105.266C399.439 104.867 399.887 104.536 400.382 104.29L401.579 103.693L401.573 103.696C402.087 103.483 402.638 103.375 403.194 103.379L405.474 103.392L407.426 103.404L430.283 102.616Z" fill="white"/>
<defs>
<linearGradient id="paint0_linear_5245_24472" x1="350.448" y1="67.6106" x2="316.535" y2="68.8185" gradientUnits="userSpaceOnUse">
<stop stop-color="#FCE285"/>
<stop offset="0.22" stop-color="#FFDA57"/>
</linearGradient>
<linearGradient id="paint1_linear_5245_24472" x1="350.448" y1="67.6106" x2="316.535" y2="68.8185" gradientUnits="userSpaceOnUse">
<stop stop-color="#FCE285"/>
<stop offset="0.22" stop-color="#FFDA57"/>
</linearGradient>
<radialGradient id="paint2_angular_5245_24472" cx="0" cy="0" r="1" gradientUnits="userSpaceOnUse" gradientTransform="translate(415.034 90) rotate(-142.434) scale(7.40825 7.16222)">
<stop offset="0.4" stop-color="#FFF7DC"/>
<stop offset="0.552166" stop-color="#FFC700"/>
</radialGradient>
<linearGradient id="paint3_linear_5245_24472" x1="386.848" y1="10.4524" x2="481.715" y2="13.9269" gradientUnits="userSpaceOnUse">
<stop stop-color="#FFDA57"/>
<stop offset="0.615" stop-color="#FEE27C"/>
</linearGradient>
<linearGradient id="paint4_linear_5245_24472" x1="344.568" y1="45.1841" x2="495.424" y2="52.9229" gradientUnits="userSpaceOnUse">
<stop stop-color="#FFE793"/>
<stop offset="1" stop-color="#FFC700"/>
</linearGradient>
<linearGradient id="paint5_linear_5245_24472" x1="386.848" y1="10.4524" x2="481.715" y2="13.9269" gradientUnits="userSpaceOnUse">
<stop stop-color="#FFD028"/>
<stop offset="0.755" stop-color="#FCE285"/>
</linearGradient>
<linearGradient id="paint6_linear_5245_24472" x1="393.588" y1="63.4992" x2="502.868" y2="66.2808" gradientUnits="userSpaceOnUse">
<stop stop-color="#FDE89D"/>
<stop offset="1" stop-color="#FFC700"/>
</linearGradient>
</defs>
</svg>
