<svg width="786" height="180" viewBox="0 0 786 180" fill="none" xmlns="http://www.w3.org/2000/svg">
<rect width="786" height="180" rx="8" fill="#F3FBFF"/>
<path d="M378.004 105.81C376.16 103.314 372.582 102.741 370.011 104.531L345.572 121.542C343.001 123.332 342.411 126.806 344.254 129.302L345.419 130.88C347.263 133.376 350.841 133.948 353.412 132.159L377.851 115.147C380.422 113.358 381.012 109.883 379.169 107.387L378.004 105.81Z" fill="url(#paint0_linear_5245_24519)"/>
<path d="M331.912 94.0942C328.332 94.7894 329.079 98.5566 330.429 101.334L343.262 127.738C344.611 130.515 348.025 131.704 350.886 130.394L352.694 129.565C355.555 128.255 356.78 124.941 355.43 122.163L343.01 93.0536C337.282 87.4926 340.213 96.8212 337.352 98.1318L331.912 94.0942Z" fill="url(#paint1_linear_5245_24519)"/>
<path d="M390.004 85.9606C390.004 65.8239 409.49 49.5 433.528 49.5C457.565 49.5 477.051 65.8239 477.051 85.9606C477.051 106.097 457.565 122.421 433.528 122.421C409.49 122.421 390.004 106.097 390.004 85.9606Z" fill="url(#paint2_angular_5245_24519)"/>
<path d="M380.215 78.9098C377.994 73.647 381.674 67.7303 387.169 67.7303H479.949C482.316 67.7303 485.154 70.1583 486.41 72.88C488.218 76.7966 484.854 81.2722 484.061 85.4943C483.659 85.7207 483.203 85.8401 482.738 85.8407L384.87 85.9606H382.929C382.723 85.9606 382.651 85.6748 382.829 85.5677C382.919 85.5142 382.955 85.3987 382.913 85.3002L380.215 78.9098Z" fill="url(#paint3_linear_5245_24519)"/>
<path d="M376.962 93.0001C376.086 89.162 378.864 85.4744 382.633 85.4744H487.198C490.966 85.4744 493.745 89.162 492.868 93.0001L492.631 94.038C492.149 96.1483 493.099 98.3316 494.935 99.3368C496.427 100.154 497.363 101.771 497.363 103.534V106.318C497.363 107.996 496.063 109.356 494.461 109.356L376.723 109.757C373.25 109.769 370.773 106.233 371.828 102.767C372.238 101.421 373.156 100.289 374.352 99.6343C376.488 98.4651 377.626 95.9069 377.065 93.4522L376.962 93.0001Z" fill="url(#paint4_linear_5245_24519)"/>
<path d="M365.086 120.916C363.773 114.993 368.068 109.332 373.875 109.332H491.694C496.967 109.332 500.898 114.423 499.794 119.823L499.633 120.61C499.135 123.044 499.87 125.575 501.577 127.308C506.026 131.824 502.973 139.715 496.777 139.715L368.244 139.716C361.988 139.716 358.851 131.8 363.269 127.163L363.715 126.693C364.743 125.615 365.32 124.153 365.32 122.63C365.32 122.192 365.272 121.755 365.178 121.328L365.086 120.916Z" fill="url(#paint5_linear_5245_24519)"/>
<path d="M366.791 139.192C366.791 139.269 366.851 139.332 366.925 139.332H500.131C500.205 139.332 500.264 139.27 500.264 139.193C500.264 152.617 489.871 163.5 477.051 163.5H390.005C377.184 163.5 366.791 152.617 366.791 139.192Z" fill="url(#paint6_linear_5245_24519)"/>
<path d="M423.208 87.7317C423.507 87.7317 423.753 87.4952 423.72 87.2063C423.656 86.6562 423.492 86.1159 423.232 85.6036C422.89 84.9289 422.389 84.3159 421.758 83.7995C421.126 83.2831 420.376 82.8735 419.551 82.594C418.726 82.3146 417.841 82.1707 416.948 82.1707C416.055 82.1707 415.17 82.3146 414.345 82.594C413.52 82.8735 412.77 83.2831 412.138 83.7995C411.507 84.3159 411.006 84.9289 410.664 85.6036C410.404 86.1159 410.24 86.6562 410.176 87.2063C410.143 87.4952 410.389 87.7317 410.688 87.7317C410.988 87.7317 411.227 87.4949 411.267 87.2067C411.327 86.7732 411.461 86.3477 411.666 85.943C411.953 85.3759 412.374 84.8606 412.905 84.4266C413.436 83.9925 414.066 83.6482 414.76 83.4133C415.454 83.1784 416.197 83.0575 416.948 83.0575C417.699 83.0575 418.442 83.1784 419.136 83.4133C419.83 83.6482 420.46 83.9925 420.991 84.4266C421.522 84.8606 421.943 85.3759 422.23 85.943C422.435 86.3477 422.569 86.7732 422.629 87.2067C422.669 87.4949 422.908 87.7317 423.208 87.7317Z" fill="#152E40"/>
<path d="M423.751 95.0112C423.751 99.0315 420.706 102.291 416.949 102.291C413.192 102.291 410.146 99.0315 410.146 95.0112C410.146 90.9908 413.192 87.7317 416.949 87.7317C420.706 87.7317 423.751 90.9908 423.751 95.0112Z" fill="white"/>
<path d="M421.045 95.6869C421.045 97.9904 419.122 99.8577 416.749 99.8577C414.377 99.8577 412.453 97.9904 412.453 95.6869C412.453 93.3835 414.377 91.5162 416.749 91.5162C419.122 91.5162 421.045 93.3835 421.045 95.6869Z" fill="#152E40"/>
<path d="M453.997 87.7317C454.297 87.7317 454.543 87.4952 454.509 87.2063C454.445 86.6562 454.281 86.1159 454.022 85.6036C453.68 84.9289 453.179 84.3159 452.547 83.7995C451.916 83.2831 451.166 82.8735 450.34 82.594C449.515 82.3146 448.631 82.1707 447.737 82.1707C446.844 82.1707 445.96 82.3146 445.134 82.594C444.309 82.8735 443.559 83.2831 442.928 83.7995C442.296 84.3159 441.795 84.9289 441.453 85.6036C441.194 86.1159 441.03 86.6562 440.966 87.2063C440.932 87.4952 441.178 87.7317 441.478 87.7317C441.777 87.7317 442.016 87.4949 442.056 87.2067C442.116 86.7732 442.25 86.3477 442.455 85.943C442.743 85.3759 443.164 84.8606 443.695 84.4266C444.226 83.9925 444.856 83.6482 445.55 83.4133C446.243 83.1784 446.987 83.0575 447.737 83.0575C448.488 83.0575 449.232 83.1784 449.925 83.4133C450.619 83.6482 451.249 83.9925 451.78 84.4266C452.311 84.8606 452.732 85.3759 453.02 85.943C453.225 86.3477 453.359 86.7732 453.419 87.2067C453.458 87.4949 453.698 87.7317 453.997 87.7317Z" fill="#152E40"/>
<path d="M454.541 95.0112C454.541 99.0315 451.495 102.291 447.738 102.291C443.981 102.291 440.935 99.0315 440.935 95.0112C440.935 90.9908 443.981 87.7317 447.738 87.7317C451.495 87.7317 454.541 90.9908 454.541 95.0112Z" fill="white"/>
<path d="M451.835 95.6869C451.835 97.9904 449.911 99.8577 447.539 99.8577C445.166 99.8577 443.243 97.9904 443.243 95.6869C443.243 93.3835 445.166 91.5162 447.539 91.5162C449.911 91.5162 451.835 93.3835 451.835 95.6869Z" fill="#152E40"/>
<path d="M463.13 93.2927C463.13 102.123 455.757 109.28 446.662 109.28C437.567 109.28 430.194 102.123 430.194 93.2927C430.194 84.4629 437.567 77.3049 446.662 77.3049C455.757 77.3049 463.13 84.4629 463.13 93.2927Z" fill="white" fill-opacity="0.45"/>
<path d="M446.404 134.953C448.65 134.716 450.653 133.413 451.805 131.439C454.624 126.607 451.194 120.493 445.664 120.493L444.986 120.493L437.355 121.485C433.194 122.025 428.981 122.02 424.82 121.469L421.722 121.059C421.313 121.005 420.901 120.983 420.488 120.992L419.02 121.027C414.607 121.13 411.418 125.35 412.46 129.708C413.156 132.621 415.595 134.765 418.533 135.046L430.367 136.178C431.913 136.326 433.471 136.318 435.016 136.155L446.404 134.953Z" fill="#152E40"/>
<path d="M446.098 119.423C450.104 119.283 453.326 124.416 449.7 126.154C449.421 126.288 448.926 126.466 448.623 126.529C448.173 126.622 447.674 126.724 447.119 126.832C443.759 127.489 440.233 127.232 436.813 127.327C434.652 127.387 432.249 127.571 430.147 127.657C425.395 127.628 417.131 127.087 414.152 125.862C413.44 125.569 413.239 124.774 413.386 124.008C413.488 123.473 413.739 122.98 414.109 122.587L414.527 122.144C414.913 121.734 415.367 121.394 415.867 121.141L417.077 120.529L417.071 120.531C417.591 120.313 418.148 120.202 418.71 120.205L422.989 120.231L446.098 119.423Z" fill="white"/>
<circle cx="29.9506" cy="29.9506" r="25.9506" transform="matrix(-0.736468 0.676473 0.676473 0.736468 335.9 16.5)" fill="white" fill-opacity="0.35" stroke="#152E40" stroke-width="8"/>
<rect width="9.35958" height="40.2462" rx="4.67979" transform="matrix(-0.995171 0.0981584 0.0981584 0.995171 340.541 82.3096)" fill="#152E40"/>
<defs>
<linearGradient id="paint0_linear_5245_24519" x1="364.963" y1="82.2227" x2="330.676" y2="83.425" gradientUnits="userSpaceOnUse">
<stop stop-color="#FCE285"/>
<stop offset="0.22" stop-color="#FFDA57"/>
</linearGradient>
<linearGradient id="paint1_linear_5245_24519" x1="364.963" y1="82.2227" x2="330.676" y2="83.425" gradientUnits="userSpaceOnUse">
<stop stop-color="#FCE285"/>
<stop offset="0.22" stop-color="#FFDA57"/>
</linearGradient>
<radialGradient id="paint2_angular_5245_24519" cx="0" cy="0" r="1" gradientUnits="userSpaceOnUse" gradientTransform="translate(432.445 106.5) rotate(-141.998) scale(7.53415 7.31252)">
<stop offset="0.4" stop-color="#FFF7DC"/>
<stop offset="0.552166" stop-color="#FFC700"/>
</radialGradient>
<linearGradient id="paint3_linear_5245_24519" x1="403.948" y1="24.8024" x2="499.864" y2="28.2605" gradientUnits="userSpaceOnUse">
<stop stop-color="#FFDA57"/>
<stop offset="0.615" stop-color="#FEE27C"/>
</linearGradient>
<linearGradient id="paint4_linear_5245_24519" x1="361.203" y1="60.4728" x2="513.733" y2="68.1755" gradientUnits="userSpaceOnUse">
<stop stop-color="#FFE793"/>
<stop offset="1" stop-color="#FFC700"/>
</linearGradient>
<linearGradient id="paint5_linear_5245_24519" x1="403.948" y1="24.8024" x2="499.864" y2="28.2605" gradientUnits="userSpaceOnUse">
<stop stop-color="#FFD028"/>
<stop offset="0.755" stop-color="#FCE285"/>
</linearGradient>
<linearGradient id="paint6_linear_5245_24519" x1="410.763" y1="79.2829" x2="521.248" y2="82.0514" gradientUnits="userSpaceOnUse">
<stop stop-color="#FDE89D"/>
<stop offset="1" stop-color="#FFC700"/>
</linearGradient>
</defs>
</svg>
