<svg width="786" height="180" viewBox="0 0 786 180" fill="none" xmlns="http://www.w3.org/2000/svg">
<rect width="786" height="180" rx="8" fill="#FEEEEE"/>
<path d="M340.412 60.9606C340.412 40.8239 359.832 24.5 383.788 24.5C407.744 24.5 427.164 40.8239 427.164 60.9606C427.164 81.0972 407.744 97.4211 383.788 97.4211C359.832 97.4211 340.412 81.0972 340.412 60.9606Z" fill="url(#paint0_angular_5247_29794)"/>
<path d="M330.657 53.9098C328.442 48.647 332.11 42.7303 337.586 42.7303H430.051C432.41 42.7303 435.239 45.1583 436.491 47.88C438.292 51.7966 434.94 56.2722 434.149 60.4943C433.749 60.7207 433.294 60.8401 432.831 60.8407L335.295 60.9606H333.361C333.156 60.9606 333.084 60.6748 333.262 60.5677C333.351 60.5142 333.387 60.3987 333.345 60.3002L330.657 53.9098Z" fill="url(#paint1_linear_5247_29794)"/>
<path d="M327.414 68.0001C326.541 64.162 329.31 60.4744 333.066 60.4744H437.275C441.031 60.4744 443.8 64.162 442.927 68.0001L442.691 69.038C442.21 71.1483 443.156 73.3316 444.986 74.3368C446.474 75.1536 447.406 76.7708 447.406 78.534V81.318C447.406 82.996 446.111 84.3562 444.514 84.356L327.177 84.7575C323.715 84.7693 321.246 81.2327 322.298 77.767C322.706 76.4208 323.621 75.2889 324.813 74.6343C326.942 73.4651 328.076 70.9069 327.517 68.4522L327.414 68.0001Z" fill="url(#paint2_linear_5247_29794)"/>
<path d="M315.579 95.9163C314.27 89.993 318.551 84.3322 324.338 84.3322H441.756C447.012 84.3322 450.929 89.4234 449.829 94.8229L449.668 95.6101C449.172 98.0443 449.904 100.575 451.606 102.308C456.04 106.824 452.997 114.715 446.822 114.715L318.726 114.716C312.491 114.716 309.365 106.8 313.767 102.163L314.213 101.693C315.237 100.615 315.812 99.1532 315.812 97.6296C315.812 97.1916 315.764 96.755 315.67 96.3284L315.579 95.9163Z" fill="url(#paint3_linear_5247_29794)"/>
<path d="M317.278 114.192C317.278 114.269 317.338 114.332 317.412 114.332H450.165C450.238 114.332 450.297 114.27 450.297 114.193C450.297 127.617 439.94 138.5 427.164 138.5H340.413C327.636 138.5 317.278 127.617 317.278 114.192Z" fill="url(#paint4_linear_5247_29794)"/>
<path d="M373.503 62.7317C373.801 62.7317 374.046 62.4952 374.013 62.2063C373.949 61.6562 373.786 61.1159 373.527 60.6036C373.187 59.9289 372.687 59.3159 372.058 58.7995C371.428 58.2831 370.681 57.8735 369.859 57.594C369.036 57.3146 368.155 57.1707 367.264 57.1707C366.374 57.1707 365.493 57.3146 364.67 57.594C363.848 57.8735 363.1 58.2831 362.471 58.7995C361.842 59.3159 361.342 59.9289 361.002 60.6036C360.743 61.1159 360.579 61.6562 360.516 62.2063C360.482 62.4952 360.728 62.7317 361.026 62.7317C361.325 62.7317 361.563 62.4949 361.603 62.2067C361.662 61.7732 361.796 61.3477 362 60.943C362.287 60.3759 362.706 59.8606 363.235 59.4266C363.765 58.9925 364.393 58.6482 365.084 58.4133C365.775 58.1784 366.516 58.0575 367.264 58.0575C368.013 58.0575 368.754 58.1784 369.445 58.4133C370.136 58.6482 370.764 58.9925 371.293 59.4266C371.823 59.8606 372.242 60.3759 372.529 60.943C372.733 61.3477 372.866 61.7732 372.926 62.2067C372.966 62.4949 373.204 62.7317 373.503 62.7317Z" fill="#152E40"/>
<path d="M374.045 70.0112C374.045 74.0315 371.009 77.2906 367.265 77.2906C363.521 77.2906 360.486 74.0315 360.486 70.0112C360.486 65.9908 363.521 62.7317 367.265 62.7317C371.009 62.7317 374.045 65.9908 374.045 70.0112Z" fill="white"/>
<path d="M371.348 70.6869C371.348 72.9904 369.431 74.8577 367.067 74.8577C364.702 74.8577 362.785 72.9904 362.785 70.6869C362.785 68.3835 364.702 66.5162 367.067 66.5162C369.431 66.5162 371.348 68.3835 371.348 70.6869Z" fill="#152E40"/>
<path d="M404.188 62.7317C404.486 62.7317 404.731 62.4952 404.698 62.2063C404.634 61.6562 404.471 61.1159 404.212 60.6036C403.871 59.9289 403.372 59.3159 402.743 58.7995C402.113 58.2831 401.366 57.8735 400.543 57.594C399.721 57.3146 398.839 57.1707 397.949 57.1707C397.059 57.1707 396.178 57.3146 395.355 57.594C394.533 57.8735 393.785 58.2831 393.156 58.7995C392.526 59.3159 392.027 59.9289 391.686 60.6036C391.428 61.1159 391.264 61.6562 391.201 62.2063C391.167 62.4952 391.412 62.7317 391.711 62.7317C392.009 62.7317 392.248 62.4949 392.287 62.2067C392.347 61.7732 392.481 61.3477 392.685 60.943C392.971 60.3759 393.391 59.8606 393.92 59.4266C394.449 58.9925 395.077 58.6482 395.769 58.4133C396.46 58.1784 397.201 58.0575 397.949 58.0575C398.697 58.0575 399.438 58.1784 400.13 58.4133C400.821 58.6482 401.449 58.9925 401.978 59.4266C402.507 59.8606 402.927 60.3759 403.213 60.943C403.418 61.3477 403.551 61.7732 403.611 62.2067C403.651 62.4949 403.889 62.7317 404.188 62.7317Z" fill="#152E40"/>
<path d="M404.73 70.0112C404.73 74.0315 401.694 77.2906 397.95 77.2906C394.206 77.2906 391.17 74.0315 391.17 70.0112C391.17 65.9908 394.206 62.7317 397.95 62.7317C401.694 62.7317 404.73 65.9908 404.73 70.0112Z" fill="white"/>
<path d="M402.033 70.6869C402.033 72.9904 400.116 74.8577 397.751 74.8577C395.387 74.8577 393.47 72.9904 393.47 70.6869C393.47 68.3835 395.387 66.5162 397.751 66.5162C400.116 66.5162 402.033 68.3835 402.033 70.6869Z" fill="#152E40"/>
<path d="M413.29 68.2927C413.29 77.1225 405.942 84.2805 396.877 84.2805C387.813 84.2805 380.465 77.1225 380.465 68.2927C380.465 59.4629 387.813 52.3049 396.877 52.3049C405.942 52.3049 413.29 59.4629 413.29 68.2927Z" fill="white" fill-opacity="0.45"/>
<path d="M396.621 109.953C398.86 109.716 400.856 108.413 402.003 106.439C404.813 101.607 401.395 95.4934 395.884 95.4934L395.208 95.4934L387.603 96.4847C383.456 97.0254 379.257 97.0202 375.111 96.4694L372.023 96.0592C371.615 96.0051 371.204 95.9827 370.794 95.9924L369.331 96.0268C364.932 96.1303 361.754 100.35 362.792 104.708C363.486 107.621 365.917 109.765 368.845 110.046L380.638 111.178C382.18 111.326 383.732 111.318 385.271 111.155L396.621 109.953Z" fill="#152E40"/>
<path d="M396.316 94.4227C400.309 94.2825 403.52 99.4165 399.906 101.154C399.628 101.288 399.134 101.466 398.833 101.529C398.384 101.622 397.886 101.724 397.334 101.832C393.985 102.489 390.471 102.232 387.063 102.327C384.909 102.387 382.515 102.571 380.42 102.657C375.683 102.628 367.448 102.087 364.479 100.862C363.769 100.569 363.569 99.7739 363.715 99.0075C363.817 98.4734 364.067 97.9804 364.436 97.5873L364.852 97.1442C365.238 96.7338 365.69 96.3945 366.188 96.1411L367.394 95.5286L367.388 95.5313C367.906 95.3128 368.461 95.202 369.021 95.2054L373.285 95.2315L396.316 94.4227Z" fill="white"/>
<rect width="55.1356" height="13" transform="translate(419.156 87.6108)" fill="#C04646"/>
<circle cx="432.725" cy="94.1108" r="2" fill="#D9D9D9"/>
<circle cx="446.725" cy="94.1108" r="2" fill="#D9D9D9"/>
<circle cx="460.725" cy="94.1108" r="2" fill="#D9D9D9"/>
<mask id="path-8-inside-1_5247_29794" fill="white">
<path d="M419.156 100.611H474.292V148.611C474.292 150.82 472.501 152.611 470.292 152.611H423.156C420.947 152.611 419.156 150.82 419.156 148.611V100.611Z"/>
</mask>
<path d="M419.156 100.611H474.292V148.611C474.292 150.82 472.501 152.611 470.292 152.611H423.156C420.947 152.611 419.156 150.82 419.156 148.611V100.611Z" fill="white"/>
<path d="M419.156 100.611H474.292H419.156ZM474.292 148.611C474.292 151.372 472.053 153.611 469.292 153.611H424.156C421.395 153.611 419.156 151.372 419.156 148.611C419.156 150.268 420.947 151.611 423.156 151.611H470.292C472.501 151.611 474.292 150.268 474.292 148.611ZM419.156 152.611V100.611V152.611ZM474.292 100.611V152.611V100.611Z" fill="#415472" mask="url(#path-8-inside-1_5247_29794)"/>
<mask id="path-10-inside-2_5247_29794" fill="white">
<path d="M432.725 100.611H460.725V123.611H432.725V100.611Z"/>
</mask>
<path d="M460.725 123.111H432.725V124.111H460.725V123.111Z" fill="black" fill-opacity="0.2" mask="url(#path-10-inside-2_5247_29794)"/>
<path d="M438.51 105.974H440.601V114.156C440.597 114.906 440.438 115.552 440.124 116.094C439.809 116.632 439.37 117.046 438.806 117.338C438.245 117.626 437.592 117.77 436.845 117.77C436.164 117.77 435.55 117.649 435.004 117.406C434.463 117.16 434.033 116.796 433.715 116.315C433.396 115.834 433.237 115.236 433.237 114.52H435.334C435.338 114.834 435.406 115.105 435.539 115.332C435.675 115.56 435.862 115.734 436.101 115.855C436.34 115.976 436.614 116.037 436.925 116.037C437.262 116.037 437.548 115.967 437.783 115.827C438.018 115.683 438.196 115.471 438.317 115.19C438.442 114.91 438.506 114.565 438.51 114.156V105.974ZM445.308 117.787C444.755 117.787 444.257 117.688 443.814 117.492C443.375 117.291 443.026 116.995 442.769 116.605C442.515 116.215 442.388 115.734 442.388 115.162C442.388 114.67 442.479 114.262 442.661 113.94C442.843 113.618 443.091 113.361 443.405 113.168C443.719 112.974 444.074 112.829 444.468 112.73C444.865 112.628 445.276 112.554 445.7 112.509C446.212 112.456 446.627 112.408 446.945 112.367C447.263 112.321 447.494 112.253 447.638 112.162C447.786 112.067 447.86 111.921 447.86 111.724V111.69C447.86 111.262 447.733 110.931 447.479 110.696C447.225 110.461 446.86 110.344 446.382 110.344C445.878 110.344 445.479 110.454 445.183 110.673C444.892 110.893 444.695 111.153 444.593 111.452L442.672 111.179C442.824 110.649 443.074 110.206 443.422 109.849C443.771 109.49 444.197 109.221 444.7 109.043C445.204 108.861 445.761 108.77 446.371 108.77C446.791 108.77 447.21 108.819 447.627 108.918C448.043 109.016 448.424 109.179 448.769 109.406C449.113 109.63 449.39 109.935 449.598 110.321C449.81 110.707 449.916 111.19 449.916 111.77V117.611H447.939V116.412H447.871C447.746 116.654 447.57 116.882 447.343 117.094C447.119 117.302 446.837 117.471 446.496 117.599C446.159 117.724 445.763 117.787 445.308 117.787ZM445.843 116.276C446.255 116.276 446.613 116.194 446.916 116.031C447.219 115.865 447.452 115.645 447.615 115.372C447.782 115.099 447.865 114.802 447.865 114.48V113.452C447.801 113.505 447.691 113.554 447.536 113.599C447.384 113.645 447.214 113.685 447.024 113.719C446.835 113.753 446.647 113.783 446.462 113.81C446.276 113.836 446.115 113.859 445.979 113.878C445.672 113.92 445.397 113.988 445.155 114.082C444.913 114.177 444.721 114.31 444.581 114.48C444.441 114.647 444.371 114.863 444.371 115.128C444.371 115.507 444.509 115.793 444.786 115.986C445.062 116.179 445.414 116.276 445.843 116.276ZM454.041 112.497V117.611H451.985V108.884H453.95V110.367H454.053C454.253 109.878 454.574 109.49 455.013 109.202C455.456 108.914 456.003 108.77 456.655 108.77C457.257 108.77 457.782 108.899 458.229 109.156C458.68 109.414 459.028 109.787 459.274 110.276C459.524 110.764 459.647 111.357 459.644 112.054V117.611H457.587V112.372C457.587 111.789 457.435 111.332 457.132 111.003C456.833 110.673 456.418 110.509 455.888 110.509C455.528 110.509 455.208 110.588 454.928 110.747C454.651 110.903 454.433 111.128 454.274 111.423C454.119 111.719 454.041 112.077 454.041 112.497Z" fill="#415472"/>
<path d="M443.894 144.611L448.224 136.04V135.97H443.198V134.429H450.133V136.005L445.808 144.611H443.894Z" fill="#415472"/>
<defs>
<radialGradient id="paint0_angular_5247_29794" cx="0" cy="0" r="1" gradientUnits="userSpaceOnUse" gradientTransform="translate(382.709 81.5) rotate(-141.904) scale(7.51826 7.30307)">
<stop offset="0.4" stop-color="#FFF7DC"/>
<stop offset="0.552166" stop-color="#FFC700"/>
</radialGradient>
<linearGradient id="paint1_linear_5247_29794" x1="354.309" y1="-0.197553" x2="449.899" y2="3.23711" gradientUnits="userSpaceOnUse">
<stop stop-color="#FFDA57"/>
<stop offset="0.615" stop-color="#FEE27C"/>
</linearGradient>
<linearGradient id="paint2_linear_5247_29794" x1="311.709" y1="35.4728" x2="463.723" y2="43.1234" gradientUnits="userSpaceOnUse">
<stop stop-color="#FFE793"/>
<stop offset="1" stop-color="#FFC700"/>
</linearGradient>
<linearGradient id="paint3_linear_5247_29794" x1="354.309" y1="-0.197553" x2="449.899" y2="3.23711" gradientUnits="userSpaceOnUse">
<stop stop-color="#FFD028"/>
<stop offset="0.755" stop-color="#FCE285"/>
</linearGradient>
<linearGradient id="paint4_linear_5247_29794" x1="361.1" y1="54.2829" x2="471.21" y2="57.0326" gradientUnits="userSpaceOnUse">
<stop stop-color="#FDE89D"/>
<stop offset="1" stop-color="#FFC700"/>
</linearGradient>
</defs>
</svg>
