<svg width="786" height="180" viewBox="0 0 786 180" fill="none" xmlns="http://www.w3.org/2000/svg">
<rect width="786" height="180" rx="8" fill="#FEF5EA"/>
<path d="M300.466 103.624C301.102 103.24 301.898 103.24 302.534 103.624L310.06 108.167C310.66 108.529 311.026 109.178 311.026 109.879V119.121C311.026 119.822 310.66 120.471 310.06 120.833L302.534 125.376C301.898 125.76 301.102 125.76 300.466 125.376L292.94 120.833C292.34 120.471 291.974 119.822 291.974 119.121V109.879C291.974 109.178 292.34 108.529 292.94 108.167L300.466 103.624Z" fill="url(#paint0_angular_5245_24310)" stroke="#7D6100" stroke-width="0.25"/>
<path d="M268.466 103.624C269.102 103.24 269.898 103.24 270.534 103.624L278.06 108.167C278.66 108.529 279.026 109.178 279.026 109.879V119.121C279.026 119.822 278.66 120.471 278.06 120.833L270.534 125.376C269.898 125.76 269.102 125.76 268.466 125.376L260.94 120.833C260.34 120.471 259.974 119.822 259.974 119.121V109.879C259.974 109.178 260.34 108.529 260.94 108.167L268.466 103.624Z" fill="url(#paint1_angular_5245_24310)" stroke="#7D6100" stroke-width="0.25"/>
<path d="M324.466 97.6238C325.102 97.2402 325.898 97.2402 326.534 97.6238L334.06 102.167C334.66 102.529 335.026 103.178 335.026 103.879V113.121C335.026 113.822 334.66 114.471 334.06 114.833L326.534 119.376C325.898 119.76 325.102 119.76 324.466 119.376L316.94 114.833C316.34 114.471 315.974 113.822 315.974 113.121V103.879C315.974 103.178 316.34 102.529 316.94 102.167L324.466 97.6238Z" fill="url(#paint2_angular_5245_24310)" stroke="#7D6100" stroke-width="0.25"/>
<path d="M342.466 97.6238C343.102 97.2402 343.898 97.2402 344.534 97.6238L352.06 102.167C352.66 102.529 353.026 103.178 353.026 103.879V113.121C353.026 113.822 352.66 114.471 352.06 114.833L344.534 119.376C343.898 119.76 343.102 119.76 342.466 119.376L334.94 114.833C334.34 114.471 333.974 113.822 333.974 113.121V103.879C333.974 103.178 334.34 102.529 334.94 102.167L342.466 97.6238Z" fill="url(#paint3_angular_5245_24310)" stroke="#7D6100" stroke-width="0.25"/>
<path d="M333.466 103.624C334.102 103.24 334.898 103.24 335.534 103.624L343.06 108.167C343.66 108.529 344.026 109.178 344.026 109.879V119.121C344.026 119.822 343.66 120.471 343.06 120.833L335.534 125.376C334.898 125.76 334.102 125.76 333.466 125.376L325.94 120.833C325.34 120.471 324.974 119.822 324.974 119.121V109.879C324.974 109.178 325.34 108.529 325.94 108.167L333.466 103.624Z" fill="url(#paint4_angular_5245_24310)" stroke="#7D6100" stroke-width="0.25"/>
<path d="M302.466 124.624C303.102 124.24 303.898 124.24 304.534 124.624L312.06 129.167C312.66 129.529 313.026 130.178 313.026 130.879V140.121C313.026 140.822 312.66 141.471 312.06 141.833L304.534 146.376C303.898 146.76 303.102 146.76 302.466 146.376L294.94 141.833C294.34 141.471 293.974 140.822 293.974 140.121V130.879C293.974 130.178 294.34 129.529 294.94 129.167L302.466 124.624Z" fill="url(#paint5_angular_5245_24310)" stroke="#7D6100" stroke-width="0.25"/>
<path d="M488.184 89.3098C490.027 86.8139 493.606 86.2412 496.176 88.0308L520.616 105.042C523.187 106.832 523.777 110.306 521.933 112.802L520.768 114.38C518.925 116.876 515.346 117.448 512.776 115.659L488.336 98.6471C485.765 96.8575 485.175 93.3834 487.019 90.8874L488.184 89.3098Z" fill="url(#paint6_linear_5245_24310)"/>
<path d="M534.275 77.5942C537.855 78.2894 537.109 82.0566 535.759 84.8342L522.926 111.238C521.576 114.015 518.162 115.204 515.301 113.894L513.493 113.065C510.632 111.755 509.407 108.441 510.757 105.663L523.177 76.5536C528.905 70.9926 525.974 80.3212 528.835 81.6318L534.275 77.5942Z" fill="url(#paint7_linear_5245_24310)"/>
<path d="M391.301 69.4606C391.301 49.3239 410.787 33 434.824 33C458.862 33 478.348 49.3239 478.348 69.4606C478.348 89.5972 458.862 105.921 434.824 105.921C410.787 105.921 391.301 89.5972 391.301 69.4606Z" fill="url(#paint8_angular_5245_24310)"/>
<path d="M381.512 62.4098C379.291 57.147 382.971 51.2303 388.466 51.2303H481.246C483.613 51.2303 486.451 53.6583 487.707 56.38C489.515 60.2966 486.151 64.7722 485.358 68.9943C484.956 69.2207 484.5 69.3401 484.035 69.3407L386.166 69.4606H384.226C384.02 69.4606 383.947 69.1748 384.126 69.0677C384.215 69.0142 384.252 68.8987 384.21 68.8002L381.512 62.4098Z" fill="url(#paint9_linear_5245_24310)"/>
<path d="M378.259 76.5001C377.382 72.662 380.161 68.9744 383.93 68.9744H488.494C492.263 68.9744 495.042 72.662 494.165 76.5001L493.928 77.538C493.446 79.6483 494.396 81.8316 496.232 82.8368C497.724 83.6536 498.659 85.2708 498.659 87.034V89.818C498.659 91.496 497.36 92.8562 495.758 92.856L378.02 93.2575C374.547 93.2693 372.07 89.7327 373.125 86.267C373.535 84.9208 374.453 83.7889 375.649 83.1343C377.785 81.9651 378.923 79.4069 378.362 76.9522L378.259 76.5001Z" fill="url(#paint10_linear_5245_24310)"/>
<path d="M366.383 104.416C365.07 98.493 369.365 92.8322 375.172 92.8322H492.991C498.264 92.8322 502.195 97.9234 501.091 103.323L500.93 104.11C500.432 106.544 501.167 109.075 502.874 110.808C507.323 115.324 504.27 123.215 498.074 123.215L369.54 123.216C363.285 123.216 360.148 115.3 364.565 110.663L365.012 110.193C366.04 109.115 366.617 107.653 366.617 106.13C366.617 105.692 366.569 105.255 366.474 104.828L366.383 104.416Z" fill="url(#paint11_linear_5245_24310)"/>
<path d="M368.088 122.692C368.088 122.769 368.148 122.832 368.222 122.832H501.428C501.501 122.832 501.561 122.77 501.561 122.693C501.561 136.117 491.168 147 478.348 147H391.302C378.481 147 368.088 136.117 368.088 122.692Z" fill="url(#paint12_linear_5245_24310)"/>
<path d="M424.505 71.2317C424.804 71.2317 425.05 70.9952 425.016 70.7063C424.953 70.1562 424.789 69.6159 424.529 69.1036C424.187 68.4289 423.686 67.8159 423.055 67.2995C422.423 66.7831 421.673 66.3735 420.848 66.094C420.023 65.8146 419.138 65.6707 418.245 65.6707C417.352 65.6707 416.467 65.8146 415.642 66.094C414.817 66.3735 414.067 66.7831 413.435 67.2995C412.803 67.8159 412.302 68.4289 411.961 69.1036C411.701 69.6159 411.537 70.1562 411.473 70.7063C411.44 70.9952 411.686 71.2317 411.985 71.2317C412.285 71.2317 412.524 70.9949 412.564 70.7067C412.624 70.2732 412.758 69.8477 412.963 69.443C413.25 68.8759 413.671 68.3606 414.202 67.9266C414.733 67.4925 415.363 67.1482 416.057 66.9133C416.751 66.6784 417.494 66.5575 418.245 66.5575C418.996 66.5575 419.739 66.6784 420.433 66.9133C421.126 67.1482 421.757 67.4925 422.288 67.9266C422.819 68.3606 423.24 68.8759 423.527 69.443C423.732 69.8477 423.866 70.2732 423.926 70.7067C423.966 70.9949 424.205 71.2317 424.505 71.2317Z" fill="#152E40"/>
<path d="M425.048 78.5112C425.048 82.5315 422.003 85.7906 418.246 85.7906C414.489 85.7906 411.443 82.5315 411.443 78.5112C411.443 74.4908 414.489 71.2317 418.246 71.2317C422.003 71.2317 425.048 74.4908 425.048 78.5112Z" fill="white"/>
<path d="M422.342 79.1869C422.342 81.4904 420.419 83.3577 418.046 83.3577C415.674 83.3577 413.75 81.4904 413.75 79.1869C413.75 76.8835 415.674 75.0162 418.046 75.0162C420.419 75.0162 422.342 76.8835 422.342 79.1869Z" fill="#152E40"/>
<path d="M455.294 71.2317C455.594 71.2317 455.839 70.9952 455.806 70.7063C455.742 70.1562 455.578 69.6159 455.319 69.1036C454.977 68.4289 454.476 67.8159 453.844 67.2995C453.212 66.7831 452.463 66.3735 451.637 66.094C450.812 65.8146 449.928 65.6707 449.034 65.6707C448.141 65.6707 447.257 65.8146 446.431 66.094C445.606 66.3735 444.856 66.7831 444.225 67.2995C443.593 67.8159 443.092 68.4289 442.75 69.1036C442.491 69.6159 442.327 70.1562 442.263 70.7063C442.229 70.9952 442.475 71.2317 442.775 71.2317C443.074 71.2317 443.313 70.9949 443.353 70.7067C443.413 70.2732 443.547 69.8477 443.752 69.443C444.04 68.8759 444.461 68.3606 444.992 67.9266C445.522 67.4925 446.153 67.1482 446.846 66.9133C447.54 66.6784 448.283 66.5575 449.034 66.5575C449.785 66.5575 450.529 66.6784 451.222 66.9133C451.916 67.1482 452.546 67.4925 453.077 67.9266C453.608 68.3606 454.029 68.8759 454.316 69.443C454.521 69.8477 454.655 70.2732 454.715 70.7067C454.755 70.9949 454.994 71.2317 455.294 71.2317Z" fill="#152E40"/>
<path d="M455.838 78.5112C455.838 82.5315 452.792 85.7906 449.035 85.7906C445.278 85.7906 442.232 82.5315 442.232 78.5112C442.232 74.4908 445.278 71.2317 449.035 71.2317C452.792 71.2317 455.838 74.4908 455.838 78.5112Z" fill="white"/>
<path d="M453.132 79.1869C453.132 81.4904 451.208 83.3577 448.836 83.3577C446.463 83.3577 444.54 81.4904 444.54 79.1869C444.54 76.8835 446.463 75.0162 448.836 75.0162C451.208 75.0162 453.132 76.8835 453.132 79.1869Z" fill="#152E40"/>
<path d="M464.427 76.7927C464.427 85.6225 457.054 92.7805 447.959 92.7805C438.864 92.7805 431.491 85.6225 431.491 76.7927C431.491 67.9629 438.864 60.8049 447.959 60.8049C457.054 60.8049 464.427 67.9629 464.427 76.7927Z" fill="white" fill-opacity="0.45"/>
<path d="M419.784 118.453C417.537 118.216 415.534 116.913 414.383 114.939C411.564 110.107 414.993 103.993 420.523 103.993L421.202 103.993L428.832 104.985C432.994 105.525 437.207 105.52 441.367 104.969L444.466 104.559C444.875 104.505 445.287 104.483 445.699 104.492L447.167 104.527C451.58 104.63 454.769 108.85 453.728 113.208C453.031 116.121 450.592 118.265 447.654 118.546L435.821 119.678C434.274 119.826 432.717 119.818 431.172 119.655L419.784 118.453Z" fill="#152E40"/>
<path d="M420.09 102.923C416.083 102.783 412.861 107.916 416.487 109.654C416.766 109.788 417.262 109.966 417.564 110.029C418.014 110.122 418.514 110.224 419.069 110.332C422.429 110.989 425.954 110.732 429.375 110.827C431.535 110.887 433.938 111.071 436.04 111.157C440.793 111.128 449.056 110.587 452.035 109.362C452.747 109.069 452.949 108.274 452.802 107.508C452.7 106.973 452.448 106.48 452.078 106.087L451.661 105.644C451.274 105.234 450.82 104.894 450.32 104.641L449.11 104.029L449.116 104.031C448.597 103.813 448.04 103.702 447.478 103.705L443.199 103.731L420.09 102.923Z" fill="white"/>
<g filter="url(#filter0_d_5245_24310)">
<path d="M515.863 80.2611C515.792 81.0022 516.132 81.7194 516.746 82.1251L522.558 85.9608C523.14 86.3451 523.882 86.3918 524.512 86.0836L531.13 82.8484C531.76 82.5403 532.187 81.9224 532.255 81.2203L532.93 74.2135C533.001 73.4724 532.662 72.7552 532.047 72.3495L526.235 68.5138C525.653 68.1294 524.911 68.0828 524.281 68.391L517.663 71.6262C517.033 71.9343 516.606 72.5521 516.538 73.2543L515.863 80.2611Z" fill="url(#paint13_angular_5245_24310)"/>
<path d="M515.863 80.2611C515.792 81.0022 516.132 81.7194 516.746 82.1251L522.558 85.9608C523.14 86.3451 523.882 86.3918 524.512 86.0836L531.13 82.8484C531.76 82.5403 532.187 81.9224 532.255 81.2203L532.93 74.2135C533.001 73.4724 532.662 72.7552 532.047 72.3495L526.235 68.5138C525.653 68.1294 524.911 68.0828 524.281 68.391L517.663 71.6262C517.033 71.9343 516.606 72.5521 516.538 73.2543L515.863 80.2611Z" stroke="#7D6100" stroke-width="0.25"/>
</g>
<defs>
<filter id="filter0_d_5245_24310" x="511.73" y="68.063" width="25.334" height="26.3481" filterUnits="userSpaceOnUse" color-interpolation-filters="sRGB">
<feFlood flood-opacity="0" result="BackgroundImageFix"/>
<feColorMatrix in="SourceAlpha" type="matrix" values="0 0 0 0 0 0 0 0 0 0 0 0 0 0 0 0 0 0 127 0" result="hardAlpha"/>
<feOffset dy="4"/>
<feGaussianBlur stdDeviation="2"/>
<feComposite in2="hardAlpha" operator="out"/>
<feColorMatrix type="matrix" values="0 0 0 0 0 0 0 0 0 0 0 0 0 0 0 0 0 0 0.08 0"/>
<feBlend mode="normal" in2="BackgroundImageFix" result="effect1_dropShadow_5245_24310"/>
<feBlend mode="normal" in="SourceGraphic" in2="effect1_dropShadow_5245_24310" result="shape"/>
</filter>
<radialGradient id="paint0_angular_5245_24310" cx="0" cy="0" r="1" gradientUnits="userSpaceOnUse" gradientTransform="translate(302 115) rotate(92.6026) scale(11.0114 12.4899)">
<stop offset="0.370785" stop-color="#FFC700"/>
<stop offset="0.371795" stop-color="#FCE285"/>
<stop offset="0.675506" stop-color="#FCE285"/>
<stop offset="0.68556" stop-color="#FFC700"/>
</radialGradient>
<radialGradient id="paint1_angular_5245_24310" cx="0" cy="0" r="1" gradientUnits="userSpaceOnUse" gradientTransform="translate(270 115) rotate(92.6026) scale(11.0114 12.4899)">
<stop offset="0.370785" stop-color="#FFC700"/>
<stop offset="0.371795" stop-color="#FCE285"/>
<stop offset="0.675506" stop-color="#FCE285"/>
<stop offset="0.68556" stop-color="#FFC700"/>
</radialGradient>
<radialGradient id="paint2_angular_5245_24310" cx="0" cy="0" r="1" gradientUnits="userSpaceOnUse" gradientTransform="translate(326 109) rotate(92.6026) scale(11.0114 12.4899)">
<stop offset="0.370785" stop-color="#FFC700"/>
<stop offset="0.371795" stop-color="#FCE285"/>
<stop offset="0.675506" stop-color="#FCE285"/>
<stop offset="0.68556" stop-color="#FFC700"/>
</radialGradient>
<radialGradient id="paint3_angular_5245_24310" cx="0" cy="0" r="1" gradientUnits="userSpaceOnUse" gradientTransform="translate(344 109) rotate(92.6026) scale(11.0114 12.4899)">
<stop offset="0.370785" stop-color="#FFC700"/>
<stop offset="0.371795" stop-color="#FCE285"/>
<stop offset="0.675506" stop-color="#FCE285"/>
<stop offset="0.68556" stop-color="#FFC700"/>
</radialGradient>
<radialGradient id="paint4_angular_5245_24310" cx="0" cy="0" r="1" gradientUnits="userSpaceOnUse" gradientTransform="translate(335 115) rotate(92.6026) scale(11.0114 12.4899)">
<stop offset="0.370785" stop-color="#FFC700"/>
<stop offset="0.371795" stop-color="#FCE285"/>
<stop offset="0.675506" stop-color="#FCE285"/>
<stop offset="0.68556" stop-color="#FFC700"/>
</radialGradient>
<radialGradient id="paint5_angular_5245_24310" cx="0" cy="0" r="1" gradientUnits="userSpaceOnUse" gradientTransform="translate(304 136) rotate(92.6026) scale(11.0114 12.4899)">
<stop offset="0.370785" stop-color="#FFC700"/>
<stop offset="0.371795" stop-color="#FCE285"/>
<stop offset="0.675506" stop-color="#FCE285"/>
<stop offset="0.68556" stop-color="#FFC700"/>
</radialGradient>
<linearGradient id="paint6_linear_5245_24310" x1="501.225" y1="65.7227" x2="535.512" y2="66.925" gradientUnits="userSpaceOnUse">
<stop stop-color="#FCE285"/>
<stop offset="0.22" stop-color="#FFDA57"/>
</linearGradient>
<linearGradient id="paint7_linear_5245_24310" x1="501.225" y1="65.7227" x2="535.512" y2="66.925" gradientUnits="userSpaceOnUse">
<stop stop-color="#FCE285"/>
<stop offset="0.22" stop-color="#FFDA57"/>
</linearGradient>
<radialGradient id="paint8_angular_5245_24310" cx="0" cy="0" r="1" gradientUnits="userSpaceOnUse" gradientTransform="translate(433.742 90) rotate(-141.998) scale(7.53415 7.31252)">
<stop offset="0.4" stop-color="#FFF7DC"/>
<stop offset="0.552166" stop-color="#FFC700"/>
</radialGradient>
<linearGradient id="paint9_linear_5245_24310" x1="405.245" y1="8.30245" x2="501.16" y2="11.7605" gradientUnits="userSpaceOnUse">
<stop stop-color="#FFDA57"/>
<stop offset="0.615" stop-color="#FEE27C"/>
</linearGradient>
<linearGradient id="paint10_linear_5245_24310" x1="362.5" y1="43.9728" x2="515.03" y2="51.6755" gradientUnits="userSpaceOnUse">
<stop stop-color="#FFE793"/>
<stop offset="1" stop-color="#FFC700"/>
</linearGradient>
<linearGradient id="paint11_linear_5245_24310" x1="405.245" y1="8.30245" x2="501.16" y2="11.7605" gradientUnits="userSpaceOnUse">
<stop stop-color="#FFD028"/>
<stop offset="0.755" stop-color="#FCE285"/>
</linearGradient>
<linearGradient id="paint12_linear_5245_24310" x1="412.06" y1="62.7829" x2="522.545" y2="65.5514" gradientUnits="userSpaceOnUse">
<stop stop-color="#FDE89D"/>
<stop offset="1" stop-color="#FFC700"/>
</linearGradient>
<radialGradient id="paint13_angular_5245_24310" cx="0" cy="0" r="1" gradientUnits="userSpaceOnUse" gradientTransform="translate(524.952 77.4329) rotate(-28.6611) scale(9.22367 10.4806)">
<stop offset="0.185" stop-color="#FFC700"/>
<stop offset="0.371795" stop-color="#FCE285"/>
<stop offset="0.675506" stop-color="#FCE285"/>
<stop offset="0.68556" stop-color="#FFC700"/>
</radialGradient>
</defs>
</svg>
