<svg width="24" height="24" viewBox="0 0 24 24" fill="none" xmlns="http://www.w3.org/2000/svg">
<rect width="24" height="24" rx="12" fill="#415472"/>
<path d="M8 8.16112C8 7.62931 8 7.3634 8.1141 7.21682C8.2135 7.08913 8.36544 7.01011 8.52991 7.00057C8.7187 6.98961 8.94636 7.13711 9.40169 7.43211L15.3271 11.271C15.7033 11.5147 15.8915 11.6366 15.957 11.7902C16.0143 11.9245 16.0143 12.0755 15.957 12.2098C15.8915 12.3634 15.7033 12.4853 15.3271 12.729L9.40169 16.5679C8.94636 16.8629 8.7187 17.0104 8.52991 16.9994C8.36544 16.9899 8.2135 16.9109 8.1141 16.7832C8 16.6366 8 16.3707 8 15.8389V8.16112Z" fill="#F4F6FF"/>
</svg>
