<svg width="24" height="24" viewBox="0 0 24 24" fill="none" xmlns="http://www.w3.org/2000/svg">
<rect width="24" height="24" rx="12" fill="#FFC700"/>
<path d="M7.8 6.01111C7.8 5.72142 7.8 5.57657 7.84222 5.46059C7.91298 5.26615 8.06615 5.11298 8.26059 5.04222C8.37657 5 8.52142 5 8.81111 5H15.1889C15.4786 5 15.6234 5 15.7394 5.04222C15.9339 5.11298 16.087 5.26615 16.1578 5.46059C16.2 5.57657 16.2 5.72142 16.2 6.01111V9.9C16.2 12.2196 14.3196 14.1 12 14.1C9.6804 14.1 7.8 12.2196 7.8 9.9V6.01111Z" fill="#FFF7DC"/>
<path d="M8.5 18.6889C8.5 17.3143 9.61431 16.2 10.9889 16.2H13.0111C14.3857 16.2 15.5 17.3143 15.5 18.6889C15.5 18.8607 15.3607 19 15.1889 19H8.81111C8.63929 19 8.5 18.8607 8.5 18.6889Z" fill="#FFF7DC"/>
<path d="M12 14.1C9.6804 14.1 7.8 12.2196 7.8 9.9V6.01111C7.8 5.72142 7.8 5.57657 7.84222 5.46059C7.91298 5.26615 8.06615 5.11298 8.26059 5.04222C8.37657 5 8.52142 5 8.81111 5H15.1889C15.4786 5 15.6234 5 15.7394 5.04222C15.9339 5.11298 16.087 5.26615 16.1578 5.46059C16.2 5.57657 16.2 5.72142 16.2 6.01111V9.9C16.2 12.2196 14.3196 14.1 12 14.1ZM12 14.1V16.2M16.2 6.4H17.95C18.2762 6.4 18.4392 6.4 18.5679 6.45328C18.7394 6.52433 18.8757 6.6606 18.9467 6.83212C19 6.96076 19 7.12384 19 7.45V7.8C19 8.45098 19 8.77647 18.9284 9.04352C18.7343 9.76821 18.1682 10.3343 17.4435 10.5284C17.1765 10.6 16.851 10.6 16.2 10.6M7.8 6.4H6.05C5.72384 6.4 5.56076 6.4 5.43212 6.45328C5.2606 6.52433 5.12433 6.6606 5.05328 6.83212C5 6.96076 5 7.12384 5 7.45V7.8C5 8.45098 5 8.77647 5.07156 9.04352C5.26574 9.76821 5.83179 10.3343 6.55648 10.5284C6.82353 10.6 7.14902 10.6 7.8 10.6M8.81111 19H15.1889C15.3607 19 15.5 18.8607 15.5 18.6889C15.5 17.3143 14.3857 16.2 13.0111 16.2H10.9889C9.61431 16.2 8.5 17.3143 8.5 18.6889C8.5 18.8607 8.63929 19 8.81111 19Z" stroke="#FFF7DC" stroke-linecap="round" stroke-linejoin="round"/>
</svg>
