<svg width="10" height="10" viewBox="0 0 10 10" fill="none" xmlns="http://www.w3.org/2000/svg">
<path d="M9 4.2H1M6.77778 1V2.6M3.22222 1V2.6M3.13333 9H6.86667C7.6134 9 7.98677 9 8.27199 8.86921C8.52287 8.75416 8.72684 8.57058 8.85468 8.34479C9 8.08809 9 7.75206 9 7.08V3.72C9 3.04794 9 2.71191 8.85468 2.45521C8.72684 2.22942 8.52287 2.04584 8.27199 1.93079C7.98677 1.8 7.6134 1.8 6.86667 1.8H3.13333C2.3866 1.8 2.01323 1.8 1.72801 1.93079C1.47713 2.04584 1.27316 2.22942 1.14532 2.45521C1 2.71191 1 3.04794 1 3.72V7.08C1 7.75206 1 8.08809 1.14532 8.34479C1.27316 8.57058 1.47713 8.75416 1.72801 8.86921C2.01323 9 2.3866 9 3.13333 9Z" stroke="#666666" stroke-linecap="round" stroke-linejoin="round"/>
</svg>
