<svg width="16" height="12" viewBox="0 0 16 12" fill="none" xmlns="http://www.w3.org/2000/svg">
<rect width="16" height="12" fill="#1E1E1E"/>
<g id="Release 1">
<path d="M-986 -992C-986 -993.105 -985.105 -994 -984 -994H7382C7383.1 -994 7384 -993.105 7384 -992V4081C7384 4082.1 7383.1 4083 7382 4083H-984C-985.105 4083 -986 4082.1 -986 4081V-992Z" fill="#404040"/>
<path d="M-984 -993H7382V-995H-984V-993ZM7383 -992V4081H7385V-992H7383ZM7382 4082H-984V4084H7382V4082ZM-985 4081V-992H-987V4081H-985ZM-984 4082C-984.552 4082 -985 4081.55 -985 4081H-987C-987 4082.66 -985.657 4084 -984 4084V4082ZM7383 4081C7383 4081.55 7382.55 4082 7382 4082V4084C7383.66 4084 7385 4082.66 7385 4081H7383ZM7382 -993C7382.55 -993 7383 -992.552 7383 -992H7385C7385 -993.657 7383.66 -995 7382 -995V-993ZM-984 -995C-985.657 -995 -987 -993.657 -987 -992H-985C-985 -992.552 -984.552 -993 -984 -993V-995Z" fill="white" fill-opacity="0.1"/>
<g id="&#226;&#150;&#182; Home/dashboard">
<g clip-path="url(#clip0_496_4450)">
<rect x="-643" y="-246" width="1728" height="1000" rx="4" fill="#FAFAFA"/>
<g id="Frame 814">
<g id="card hover">
<g id="Final goal card pls">
<rect x="-344.5" y="-150.5" width="384" height="377" rx="8.5" stroke="#414FC7" stroke-opacity="0.25"/>
<g id="Frame 167">
<path d="M-344 -142C-344 -146.418 -340.418 -150 -336 -150H31C35.4183 -150 39 -146.418 39 -142V166H-344V-142Z" fill="white"/>
<g id="Progress badge">
<rect x="-328" y="-14" width="351" height="40" rx="4" fill="#FAFAFA"/>
<g id="Frame 138">
<g id="Frame 547">
<g id="Icon">
<path d="M1.18763 6.50941C1.09079 6.35539 1.04237 6.27837 1.01527 6.15958C0.99491 6.07036 0.99491 5.92964 1.01527 5.84042C1.04237 5.72163 1.09079 5.64462 1.18763 5.49059C1.98789 4.21774 4.36992 1 8 1C11.6301 1 14.0121 4.21774 14.8124 5.49059C14.9092 5.64462 14.9576 5.72163 14.9847 5.84042C15.0051 5.92964 15.0051 6.07036 14.9847 6.15958C14.9576 6.27837 14.9092 6.35538 14.8124 6.50941C14.0121 7.78226 11.6301 11 8 11C4.36992 11 1.98789 7.78226 1.18763 6.50941Z" stroke="#415472" stroke-linecap="round" stroke-linejoin="round"/>
<path d="M8 8.14286C9.17816 8.14286 10.1332 7.18347 10.1332 6C10.1332 4.81653 9.17816 3.85714 8 3.85714C6.82184 3.85714 5.86675 4.81653 5.86675 6C5.86675 7.18347 6.82184 8.14286 8 8.14286Z" stroke="#415472" stroke-linecap="round" stroke-linejoin="round"/>
</g>
</g>
</g>
</g>
</g>
</g>
</g>
</g>
</g>
</g>
</g>
<defs>
<clipPath id="clip0_496_4450">
<rect x="-643" y="-246" width="1728" height="1000" rx="4" fill="white"/>
</clipPath>
</defs>
</svg>
