<svg width="264" height="64" viewBox="0 0 264 64" fill="none" xmlns="http://www.w3.org/2000/svg">
<path d="M25.624 26.048C22.144 26.048 20.152 28.568 20.152 32.36C20.152 36.272 22.408 38.408 25.648 38.408C28.696 38.408 30.544 36.728 30.544 33.92V33.848H25.24V31.136H33.4V41H30.808L30.616 38.984C29.656 40.328 27.664 41.264 25.288 41.264C20.368 41.264 16.936 37.688 16.936 32.288C16.936 26.96 20.416 23.168 25.696 23.168C29.704 23.168 32.8 25.496 33.304 29.072H30.064C29.512 27.008 27.736 26.048 25.624 26.048ZM35.5894 35.048C35.5894 31.352 38.2534 28.808 41.9254 28.808C45.5974 28.808 48.2614 31.352 48.2614 35.048C48.2614 38.744 45.5974 41.288 41.9254 41.288C38.2534 41.288 35.5894 38.744 35.5894 35.048ZM38.5174 35.048C38.5174 37.208 39.9094 38.672 41.9254 38.672C43.9414 38.672 45.3334 37.208 45.3334 35.048C45.3334 32.888 43.9414 31.424 41.9254 31.424C39.9094 31.424 38.5174 32.888 38.5174 35.048ZM54.1103 41.312C51.5903 41.312 50.0543 39.848 50.0543 37.616C50.0543 35.432 51.6383 34.064 54.4463 33.848L57.9983 33.584V33.32C57.9983 31.712 57.0383 31.064 55.5503 31.064C53.8223 31.064 52.8623 31.784 52.8623 33.032H50.3663C50.3663 30.464 52.4783 28.784 55.6943 28.784C58.8863 28.784 60.8543 30.512 60.8543 33.8V41H58.2863L58.0703 39.248C57.5663 40.472 55.9583 41.312 54.1103 41.312ZM55.0703 39.104C56.8703 39.104 58.0223 38.024 58.0223 36.2V35.576L55.5503 35.768C53.7263 35.936 53.0303 36.536 53.0303 37.496C53.0303 38.576 53.7503 39.104 55.0703 39.104ZM66.6828 41H63.7788V23.144H66.6828V41Z" fill="#415472"/>
<path d="M73.2582 41H70.1862V23.456H73.2582V30.704H81.0342V23.456H84.1062V41H81.0342V33.56H73.2582V41ZM86.5347 46.496V44.048H88.2867C89.4387 44.048 90.1587 43.784 90.6627 42.392L90.9987 41.504L86.2227 29.144H89.3187L92.3667 37.784L95.5827 29.144H98.6067L92.7987 43.64C91.9107 45.848 90.6627 46.76 88.7187 46.76C87.9027 46.76 87.1827 46.664 86.5347 46.496ZM103.63 41L98.9258 29.144H102.046L104.11 34.592C104.614 36.008 105.022 37.232 105.166 37.88C105.334 37.136 105.766 35.888 106.27 34.592L108.43 29.144H111.454L106.51 41H103.63ZM117.855 41.312C114.327 41.312 111.855 38.744 111.855 35.072C111.855 31.352 114.279 28.784 117.759 28.784C121.311 28.784 123.567 31.16 123.567 34.856V35.744L114.639 35.768C114.855 37.856 115.959 38.912 117.903 38.912C119.511 38.912 120.567 38.288 120.903 37.16H123.615C123.111 39.752 120.951 41.312 117.855 41.312ZM117.783 31.184C116.055 31.184 114.999 32.12 114.711 33.896H120.663C120.663 32.264 119.535 31.184 117.783 31.184Z" fill="#414FC7"/>
<path d="M127.469 27.6759C127.469 23.4366 131.298 20 136.022 20C140.746 20 144.575 23.4366 144.575 27.6759C144.575 31.9152 140.746 35.3518 136.022 35.3518C131.298 35.3518 127.469 31.9152 127.469 27.6759Z" fill="url(#paint0_angular_5889_20749)"/>
<path d="M125.545 26.1915C125.109 25.0836 125.832 23.838 126.912 23.838H145.144C145.608 23.838 146.163 24.3449 146.411 24.9151C146.772 25.7434 146.108 26.6878 145.952 27.5778C145.874 27.6253 145.783 27.6506 145.691 27.6507L126.46 27.6759H126.079C126.038 27.6759 126.024 27.6157 126.059 27.5932C126.077 27.5819 126.084 27.5576 126.076 27.5369L125.545 26.1915Z" fill="url(#paint1_linear_5889_20749)"/>
<path d="M124.906 29.1579C124.734 28.3499 125.28 27.5736 126.02 27.5736H146.569C147.309 27.5736 147.855 28.3499 147.683 29.1579L147.637 29.3764C147.542 29.8207 147.728 30.2803 148.089 30.492C148.383 30.6639 148.566 31.0044 148.566 31.3756V31.9617C148.566 32.315 148.311 32.6013 147.996 32.6013L124.859 32.6858C124.177 32.6883 123.69 31.9437 123.897 31.2141C123.978 30.9307 124.158 30.6924 124.393 30.5546C124.813 30.3084 125.037 29.7699 124.926 29.2531L124.906 29.1579Z" fill="url(#paint2_linear_5889_20749)"/>
<path d="M122.763 35.0273C122.505 33.7802 123.349 32.5885 124.49 32.5885H147.643C148.679 32.5885 149.452 33.6603 149.235 34.7971L149.203 34.9628C149.105 35.4753 149.25 36.0081 149.585 36.3729C150.46 37.3235 149.86 38.9849 148.642 38.9849L123.384 38.9851C122.154 38.9851 121.538 37.3187 122.406 36.3423L122.494 36.2435C122.696 36.0164 122.809 35.7087 122.809 35.3879C122.809 35.2957 122.8 35.2038 122.781 35.114L122.763 35.0273Z" fill="url(#paint3_linear_5889_20749)"/>
<path d="M122.907 38.8825C122.907 38.8988 122.919 38.9121 122.934 38.9121H149.11C149.125 38.9121 149.137 38.8989 149.137 38.8827C149.137 41.7089 147.094 44 144.575 44H127.469C124.95 44 122.907 41.7088 122.907 38.8825Z" fill="url(#paint4_linear_5889_20749)"/>
<path d="M139.74 43.1531C139.74 42.6401 139.416 42.1481 138.84 41.7853C138.263 41.4226 137.481 41.2188 136.666 41.2188C135.851 41.2188 135.069 41.4226 134.492 41.7853C133.916 42.1481 133.592 42.6401 133.592 43.1531H139.74Z" fill="#152E40"/>
<path d="M146.107 27.4486C146.145 27.284 146.199 27.1159 146.259 26.9437C146.284 26.872 146.31 26.7991 146.336 26.7255C146.391 26.5715 146.447 26.4146 146.495 26.2604C146.637 25.8041 146.725 25.323 146.526 24.8652C146.394 24.5626 146.182 24.2783 145.94 24.0684C145.701 23.8607 145.419 23.713 145.144 23.713H143.499C141.987 21.4128 139.199 19.875 136.022 19.875C132.845 19.875 130.057 21.4128 128.545 23.713H126.912C126.32 23.713 125.831 24.0549 125.552 24.5365C125.272 25.0179 125.196 25.6462 125.429 26.2374L125.908 27.4538C125.132 27.527 124.607 28.3554 124.784 29.184L124.804 29.2792C124.904 29.7484 124.699 30.2304 124.33 30.4468C124.065 30.602 123.866 30.8678 123.777 31.1799C123.637 31.674 123.788 32.1886 124.113 32.5045C123.08 32.7331 122.399 33.883 122.641 35.0526L122.659 35.1393C122.675 35.2208 122.684 35.3042 122.684 35.3879C122.684 35.6799 122.581 35.9576 122.4 36.1604L122.312 36.2592C121.844 36.7867 121.778 37.4976 121.991 38.0732C122.135 38.4622 122.41 38.7989 122.783 38.9763C122.828 41.815 124.896 44.125 127.469 44.125H144.575C147.152 44.125 149.222 41.8087 149.261 38.9646C149.617 38.7847 149.879 38.4555 150.016 38.0778C150.222 37.5065 150.15 36.8028 149.677 36.2882C149.37 35.9544 149.235 35.4622 149.326 34.9862L149.358 34.8205C149.535 33.8911 149.085 32.983 148.345 32.6242C148.555 32.4897 148.691 32.2376 148.691 31.9617V31.3756C148.691 30.965 148.488 30.5809 148.153 30.3841C147.843 30.2028 147.674 29.8002 147.759 29.4025L147.805 29.184C147.99 28.3161 147.406 27.4486 146.569 27.4486H146.107Z" stroke="#3E3F45" stroke-opacity="0.75" stroke-width="0.25"/>
<defs>
<radialGradient id="paint0_angular_5889_20749" cx="0" cy="0" r="1" gradientUnits="userSpaceOnUse" gradientTransform="translate(136 32) rotate(-140.069) scale(1.52144 1.49811)">
<stop offset="0.4" stop-color="#FFF7DC"/>
<stop offset="0.552166" stop-color="#FFC700"/>
</radialGradient>
<linearGradient id="paint1_linear_5889_20749" x1="130.4" y1="14.8005" x2="149.252" y2="15.4349" gradientUnits="userSpaceOnUse">
<stop stop-color="#FFDA57"/>
<stop offset="0.615" stop-color="#FEE27C"/>
</linearGradient>
<linearGradient id="paint2_linear_5889_20749" x1="122" y1="22.3101" x2="151.984" y2="23.7235" gradientUnits="userSpaceOnUse">
<stop stop-color="#FFE793"/>
<stop offset="1" stop-color="#FFC700"/>
</linearGradient>
<linearGradient id="paint3_linear_5889_20749" x1="130.4" y1="14.8005" x2="149.252" y2="15.4349" gradientUnits="userSpaceOnUse">
<stop stop-color="#FFD028"/>
<stop offset="0.755" stop-color="#FCE285"/>
</linearGradient>
<linearGradient id="paint4_linear_5889_20749" x1="131.739" y1="26.2701" x2="153.453" y2="26.778" gradientUnits="userSpaceOnUse">
<stop stop-color="#FDE89D"/>
<stop offset="1" stop-color="#FFC700"/>
</linearGradient>
</defs>
</svg>
