<svg width="22" height="19" viewBox="0 0 22 19" fill="none" xmlns="http://www.w3.org/2000/svg">
<path d="M4.29701 6.25693C4.29701 3.07746 7.30575 0.5 11.0172 0.5C14.7287 0.5 17.7374 3.07746 17.7374 6.25693C17.7374 9.43639 14.7287 12.0139 11.0172 12.0139C7.30575 12.0139 4.29701 9.43639 4.29701 6.25693Z" fill="url(#paint0_angular_4898_14439)"/>
<path d="M2.78566 5.14365C2.44261 4.31269 3.01082 3.37846 3.85926 3.37846H18.1848C18.5506 3.37846 18.9892 3.76244 19.1829 4.19259C19.4612 4.81047 18.9421 5.51681 18.8197 6.18332C18.7577 6.21906 18.6873 6.23791 18.6157 6.238L3.50427 6.25693H3.20465C3.17287 6.25693 3.16166 6.21181 3.18925 6.1949C3.20304 6.18646 3.20864 6.16822 3.20221 6.15266L2.78566 5.14365Z" fill="url(#paint1_linear_4898_14439)"/>
<path d="M2.28335 7.36844C2.14801 6.76242 2.57705 6.18017 3.15895 6.18017H19.304C19.8859 6.18017 20.315 6.76242 20.1796 7.36844L20.143 7.53232C20.0686 7.86552 20.2152 8.21026 20.4987 8.36897C20.7291 8.49794 20.8735 8.75329 20.8735 9.03169V9.47127C20.8735 9.73621 20.673 9.95098 20.4255 9.95095L2.24649 10.0143C1.71013 10.0162 1.32773 9.45779 1.49065 8.91058C1.55394 8.69802 1.6957 8.5193 1.88034 8.41595C2.21015 8.23133 2.38585 7.82741 2.29929 7.43983L2.28335 7.36844Z" fill="url(#paint2_linear_4898_14439)"/>
<path d="M0.599567 11.7704C0.396832 10.8352 1.05998 9.94137 1.9566 9.94137H20.1482C20.9624 9.94137 21.5694 10.7452 21.3989 11.5978L21.374 11.7221C21.2971 12.1064 21.4105 12.5061 21.6741 12.7796C22.3611 13.4926 21.8897 14.7386 20.933 14.7386L1.08707 14.7388C0.121231 14.7388 -0.363132 13.489 0.31891 12.7567L0.387907 12.6826C0.546554 12.5123 0.635646 12.2815 0.635646 12.041C0.635646 11.9718 0.628273 11.9029 0.61367 11.8355L0.599567 11.7704Z" fill="url(#paint3_linear_4898_14439)"/>
<path d="M0.712889 14.6619C0.712889 14.6741 0.722165 14.6841 0.733607 14.6841H21.301C21.3124 14.6841 21.3216 14.6742 21.3216 14.662C21.3216 16.7817 19.7169 18.5 17.7374 18.5H4.29717C2.31763 18.5 0.712889 16.7816 0.712889 14.6619Z" fill="url(#paint4_linear_4898_14439)"/>
<path d="M13.9387 17.8648C13.9387 17.4801 13.6842 17.1111 13.2312 16.839C12.7783 16.5669 12.1639 16.4141 11.5233 16.4141C10.8827 16.4141 10.2683 16.5669 9.81536 16.839C9.36239 17.1111 9.10791 17.4801 9.10791 17.8648H13.9387Z" fill="#152E40"/>
<defs>
<radialGradient id="paint0_angular_4898_14439" cx="0" cy="0" r="1" gradientUnits="userSpaceOnUse" gradientTransform="translate(11 9.5) rotate(-141.375) scale(1.17334 1.14473)">
<stop offset="0.4" stop-color="#FFF7DC"/>
<stop offset="0.552166" stop-color="#FFC700"/>
</radialGradient>
<linearGradient id="paint1_linear_4898_14439" x1="6.6" y1="-3.39961" x2="21.4104" y2="-2.87745" gradientUnits="userSpaceOnUse">
<stop stop-color="#FFDA57"/>
<stop offset="0.615" stop-color="#FEE27C"/>
</linearGradient>
<linearGradient id="paint2_linear_4898_14439" x1="-3.70533e-07" y1="2.23255" x2="23.5537" y2="3.3957" gradientUnits="userSpaceOnUse">
<stop stop-color="#FFE793"/>
<stop offset="1" stop-color="#FFC700"/>
</linearGradient>
<linearGradient id="paint3_linear_4898_14439" x1="6.6" y1="-3.39961" x2="21.4104" y2="-2.87745" gradientUnits="userSpaceOnUse">
<stop stop-color="#FFD028"/>
<stop offset="0.755" stop-color="#FCE285"/>
</linearGradient>
<linearGradient id="paint4_linear_4898_14439" x1="7.65217" y1="5.20257" x2="24.7119" y2="5.62059" gradientUnits="userSpaceOnUse">
<stop stop-color="#FDE89D"/>
<stop offset="1" stop-color="#FFC700"/>
</linearGradient>
</defs>
</svg>
