<svg width="16" height="16" viewBox="0 0 16 16" fill="none" xmlns="http://www.w3.org/2000/svg">
<rect width="16" height="16" fill="#1E1E1E"/>
<rect width="1728" height="2409" transform="translate(-493 -924)" fill="#FAFAFA"/>
<path d="M-24 -16C-24 -20.4183 -20.4183 -24 -16 -24H758C762.418 -24 766 -20.4183 766 -16V132C766 136.418 762.418 140 758 140H-16C-20.4183 140 -24 136.418 -24 132V-16Z" fill="white"/>
<rect x="-8" y="-8" width="139" height="32" rx="4" fill="#F4F6FF"/>
<g clip-path="url(#clip0_168_554)">
<path d="M8 1.5V3.16667M8 12V14.6667M3.83333 8H1.5M14.1667 8H13.1667M12.3047 12.3047L11.8333 11.8333M12.4428 3.61052L11.5 4.55333M3.28105 12.719L5.16667 10.8333M3.41912 3.47245L4.83333 4.88667" stroke="#5B5B66" stroke-width="2" stroke-linecap="round" stroke-linejoin="round"/>
</g>
<rect x="-24.5" y="-24.5" width="791" height="165" rx="8.5" stroke="#415472" stroke-opacity="0.08"/>
<defs>
<clipPath id="clip0_168_554">
<rect width="16" height="16" fill="white"/>
</clipPath>
</defs>
</svg>
