<svg width="16" height="17" viewBox="0 0 16 17" fill="none" xmlns="http://www.w3.org/2000/svg">
<path d="M11.1111 12.5615L15 8.5M15 8.5L11.1111 4.4385M15 8.5H5.66667M8 12.5615C8 12.8016 8 12.9217 7.99146 13.0257C7.90264 14.1065 7.14044 14.9958 6.12169 15.2074C6.02369 15.2277 5.90935 15.241 5.68094 15.2675L4.88651 15.3597C3.69304 15.4982 3.09627 15.5675 2.62218 15.409C1.99006 15.1977 1.47399 14.7153 1.20314 14.0825C1 13.6079 1 12.9808 1 11.7267V5.27329C1 4.01916 1 3.39209 1.20314 2.91748C1.47399 2.28466 1.99006 1.80226 2.62218 1.59099C3.09628 1.43255 3.69302 1.5018 4.88651 1.64029L5.68094 1.73248C5.90943 1.759 6.02367 1.77225 6.12169 1.79261C7.14044 2.00415 7.90264 2.89353 7.99146 3.97435C8 4.07835 8 4.1984 8 4.4385" stroke="#415472" stroke-width="2" stroke-linecap="round" stroke-linejoin="round"/>
</svg>
