<svg width="33" height="32" viewBox="0 0 33 32" fill="none" xmlns="http://www.w3.org/2000/svg">
<path d="M12 17C12.5523 17 13 16.5523 13 16C13 15.4477 12.5523 15 12 15C11.4477 15 11 15.4477 11 16C11 16.5523 11.4477 17 12 17Z" stroke="#415472" stroke-width="2" stroke-linecap="round" stroke-linejoin="round"/>
<path d="M12 10C12.5523 10 13 9.55228 13 9C13 8.44772 12.5523 8 12 8C11.4477 8 11 8.44772 11 9C11 9.55228 11.4477 10 12 10Z" stroke="#415472" stroke-width="2" stroke-linecap="round" stroke-linejoin="round"/>
<path d="M12 24C12.5523 24 13 23.5523 13 23C13 22.4477 12.5523 22 12 22C11.4477 22 11 22.4477 11 23C11 23.5523 11.4477 24 12 24Z" stroke="#415472" stroke-width="2" stroke-linecap="round" stroke-linejoin="round"/>
<path d="M21 17C21.5523 17 22 16.5523 22 16C22 15.4477 21.5523 15 21 15C20.4477 15 20 15.4477 20 16C20 16.5523 20.4477 17 21 17Z" stroke="#415472" stroke-width="2" stroke-linecap="round" stroke-linejoin="round"/>
<path d="M21 10C21.5523 10 22 9.55228 22 9C22 8.44772 21.5523 8 21 8C20.4477 8 20 8.44772 20 9C20 9.55228 20.4477 10 21 10Z" stroke="#415472" stroke-width="2" stroke-linecap="round" stroke-linejoin="round"/>
<path d="M21 24C21.5523 24 22 23.5523 22 23C22 22.4477 21.5523 22 21 22C20.4477 22 20 22.4477 20 23C20 23.5523 20.4477 24 21 24Z" stroke="#415472" stroke-width="2" stroke-linecap="round" stroke-linejoin="round"/>
</svg>
