<svg width="117" height="41" viewBox="0 0 117 41" fill="none" xmlns="http://www.w3.org/2000/svg">
<path d="M15.218 16.286C12.608 16.286 11.114 18.176 11.114 21.02C11.114 23.954 12.806 25.556 15.236 25.556C17.522 25.556 18.908 24.296 18.908 22.19V22.136H14.93V20.102H21.05V27.5H19.106L18.962 25.988C18.242 26.996 16.748 27.698 14.966 27.698C11.276 27.698 8.702 25.016 8.702 20.966C8.702 16.97 11.312 14.126 15.272 14.126C18.278 14.126 20.6 15.872 20.978 18.554H18.548C18.134 17.006 16.802 16.286 15.218 16.286ZM22.6921 23.036C22.6921 20.264 24.6901 18.356 27.4441 18.356C30.1981 18.356 32.1961 20.264 32.1961 23.036C32.1961 25.808 30.1981 27.716 27.4441 27.716C24.6901 27.716 22.6921 25.808 22.6921 23.036ZM24.8881 23.036C24.8881 24.656 25.9321 25.754 27.4441 25.754C28.9561 25.754 30.0001 24.656 30.0001 23.036C30.0001 21.416 28.9561 20.318 27.4441 20.318C25.9321 20.318 24.8881 21.416 24.8881 23.036ZM36.5827 27.734C34.6927 27.734 33.5407 26.636 33.5407 24.962C33.5407 23.324 34.7287 22.298 36.8347 22.136L39.4987 21.938V21.74C39.4987 20.534 38.7787 20.048 37.6627 20.048C36.3667 20.048 35.6467 20.588 35.6467 21.524H33.7747C33.7747 19.598 35.3587 18.338 37.7707 18.338C40.1647 18.338 41.6407 19.634 41.6407 22.1V27.5H39.7147L39.5527 26.186C39.1747 27.104 37.9687 27.734 36.5827 27.734ZM37.3027 26.078C38.6527 26.078 39.5167 25.268 39.5167 23.9V23.432L37.6627 23.576C36.2947 23.702 35.7727 24.152 35.7727 24.872C35.7727 25.682 36.3127 26.078 37.3027 26.078ZM46.0121 27.5H43.8341V14.108H46.0121V27.5Z" fill="#415472"/>
<path d="M50.9436 27.5H48.6396V14.342H50.9436V19.778H56.7756V14.342H59.0796V27.5H56.7756V21.92H50.9436V27.5ZM60.901 31.622V29.786H62.215C63.079 29.786 63.619 29.588 63.997 28.544L64.249 27.878L60.667 18.608H62.989L65.275 25.088L67.687 18.608H69.955L65.599 29.48C64.933 31.136 63.997 31.82 62.539 31.82C61.927 31.82 61.387 31.748 60.901 31.622ZM73.7224 27.5L70.1944 18.608H72.5344L74.0824 22.694C74.4604 23.756 74.7664 24.674 74.8744 25.16C75.0004 24.602 75.3244 23.666 75.7024 22.694L77.3224 18.608H79.5904L75.8824 27.5H73.7224ZM84.3913 27.734C81.7453 27.734 79.8913 25.808 79.8913 23.054C79.8913 20.264 81.7093 18.338 84.3193 18.338C86.9833 18.338 88.6753 20.12 88.6753 22.892V23.558L81.9793 23.576C82.1413 25.142 82.9693 25.934 84.4273 25.934C85.6333 25.934 86.4253 25.466 86.6773 24.62H88.7113C88.3333 26.564 86.7133 27.734 84.3913 27.734ZM84.3373 20.138C83.0413 20.138 82.2493 20.84 82.0333 22.172H86.4973C86.4973 20.948 85.6513 20.138 84.3373 20.138Z" fill="#414FC7"/>
<path d="M91.297 17.2569C91.297 14.0775 94.3058 11.5 98.0172 11.5C101.729 11.5 104.737 14.0775 104.737 17.2569C104.737 20.4364 101.729 23.0139 98.0172 23.0139C94.3058 23.0139 91.297 20.4364 91.297 17.2569Z" fill="url(#paint0_angular_4898_14437)"/>
<path d="M89.7857 16.1437C89.4426 15.3127 90.0108 14.3785 90.8593 14.3785H105.185C105.551 14.3785 105.989 14.7624 106.183 15.1926C106.461 15.8105 105.942 16.5168 105.82 17.1833C105.758 17.2191 105.687 17.2379 105.616 17.238L90.5043 17.2569H90.2047C90.1729 17.2569 90.1617 17.2118 90.1893 17.1949C90.203 17.1865 90.2086 17.1682 90.2022 17.1527L89.7857 16.1437Z" fill="url(#paint1_linear_4898_14437)"/>
<path d="M89.2834 18.3684C89.148 17.7624 89.577 17.1802 90.1589 17.1802H106.304C106.886 17.1802 107.315 17.7624 107.18 18.3684L107.143 18.5323C107.069 18.8655 107.215 19.2103 107.499 19.369C107.729 19.4979 107.874 19.7533 107.874 20.0317V20.4713C107.874 20.7362 107.673 20.951 107.426 20.951L89.2465 21.0143C88.7101 21.0162 88.3277 20.4578 88.4907 19.9106C88.5539 19.698 88.6957 19.5193 88.8803 19.4159C89.2102 19.2313 89.3859 18.8274 89.2993 18.4398L89.2834 18.3684Z" fill="url(#paint2_linear_4898_14437)"/>
<path d="M87.5996 22.7704C87.3968 21.8352 88.06 20.9414 88.9566 20.9414H107.148C107.962 20.9414 108.569 21.7452 108.399 22.5978L108.374 22.7221C108.297 23.1064 108.411 23.5061 108.674 23.7796C109.361 24.4926 108.89 25.7386 107.933 25.7386L88.0871 25.7388C87.1212 25.7388 86.6369 24.489 87.3189 23.7567L87.3879 23.6826C87.5466 23.5123 87.6356 23.2815 87.6356 23.041C87.6356 22.9718 87.6283 22.9029 87.6137 22.8355L87.5996 22.7704Z" fill="url(#paint3_linear_4898_14437)"/>
<path d="M87.7129 25.6619C87.7129 25.6741 87.7222 25.6841 87.7336 25.6841H108.301C108.312 25.6841 108.322 25.6742 108.322 25.662C108.322 27.7817 106.717 29.5 104.737 29.5H91.2972C89.3176 29.5 87.7129 27.7816 87.7129 25.6619Z" fill="url(#paint4_linear_4898_14437)"/>
<path d="M100.939 28.8648C100.939 28.4801 100.684 28.1111 100.231 27.839C99.7783 27.5669 99.1639 27.4141 98.5233 27.4141C97.8827 27.4141 97.2683 27.5669 96.8154 27.839C96.3624 28.1111 96.1079 28.4801 96.1079 28.8648H100.939Z" fill="#152E40"/>
<defs>
<radialGradient id="paint0_angular_4898_14437" cx="0" cy="0" r="1" gradientUnits="userSpaceOnUse" gradientTransform="translate(98 20.5) rotate(-141.375) scale(1.17334 1.14473)">
<stop offset="0.4" stop-color="#FFF7DC"/>
<stop offset="0.552166" stop-color="#FFC700"/>
</radialGradient>
<linearGradient id="paint1_linear_4898_14437" x1="93.6" y1="7.60039" x2="108.41" y2="8.12255" gradientUnits="userSpaceOnUse">
<stop stop-color="#FFDA57"/>
<stop offset="0.615" stop-color="#FEE27C"/>
</linearGradient>
<linearGradient id="paint2_linear_4898_14437" x1="87" y1="13.2326" x2="110.554" y2="14.3957" gradientUnits="userSpaceOnUse">
<stop stop-color="#FFE793"/>
<stop offset="1" stop-color="#FFC700"/>
</linearGradient>
<linearGradient id="paint3_linear_4898_14437" x1="93.6" y1="7.60039" x2="108.41" y2="8.12255" gradientUnits="userSpaceOnUse">
<stop stop-color="#FFD028"/>
<stop offset="0.755" stop-color="#FCE285"/>
</linearGradient>
<linearGradient id="paint4_linear_4898_14437" x1="94.6522" y1="16.2026" x2="111.712" y2="16.6206" gradientUnits="userSpaceOnUse">
<stop stop-color="#FDE89D"/>
<stop offset="1" stop-color="#FFC700"/>
</linearGradient>
</defs>
</svg>
